<svg width="1463" height="1463" viewBox="0 0 1463 1463" fill="none" xmlns="http://www.w3.org/2000/svg">
<path d="M721.206 862.278C719.296 861.757 689.907 854.179 658.676 854.179C599.546 854.179 563.947 886.102 563.947 933.641C563.947 975.722 593.728 996.708 629.47 1008C633.432 1009.3 639.271 1011.13 643.159 1012.42C659.069 1017.42 671.768 1024.86 671.768 1037.74C671.768 1052.14 657.091 1061.47 625.183 1061.47C597.142 1061.47 570.259 1053.45 564.597 1052.02V1110.51C567.753 1111.18 599.702 1117.45 633.832 1117.45C682.924 1117.45 739.08 1096 739.08 1032.16C739.08 1001.19 720.115 972.681 678.481 959.449L660.782 953.815C650.223 950.483 631.373 945.086 631.373 929.612C631.373 917.388 645.34 908.781 671.057 908.781C693.246 908.781 720.251 916.237 721.206 916.535V862.278ZM1263.34 985.819C1263.34 1022.8 1235 1052.72 1196.99 1052.72C1158.93 1052.72 1130.67 1022.8 1130.67 985.819C1130.67 948.912 1158.93 918.98 1196.99 918.98C1235 918.98 1263.34 948.912 1263.34 985.819ZM1196.99 854.26C1118.8 854.26 1062.72 913.224 1062.72 985.819C1062.72 1058.53 1118.8 1117.45 1196.99 1117.45C1275.17 1117.45 1331.32 1058.53 1331.32 985.819C1331.32 913.224 1275.17 854.26 1196.99 854.26ZM477.921 1112.93H413.766V858.764H477.921" fill="#049FD9"/>
<path d="M325.585 863.369C319.556 861.581 297.273 854.26 267.092 854.26C189.024 854.26 131.717 909.912 131.717 985.819C131.717 1067.71 194.978 1117.45 267.092 1117.45C295.742 1117.45 317.613 1110.67 325.585 1108.4V1040.18C322.828 1041.71 301.858 1053.67 271.691 1053.67C228.952 1053.67 201.385 1023.59 201.385 985.819C201.385 946.894 230.144 918.025 271.691 918.025C302.373 918.025 323.004 930.248 325.585 931.596" fill="#049FD9"/>
<path d="M995.178 863.369C989.15 861.581 966.867 854.26 936.685 854.26C858.618 854.26 801.311 909.912 801.311 985.819C801.311 1067.71 864.572 1117.45 936.685 1117.45C965.336 1117.45 987.206 1110.67 995.178 1108.4V1040.18C992.422 1041.71 971.452 1053.67 941.284 1053.67C898.546 1053.67 870.979 1023.59 870.979 985.819C870.979 946.894 899.738 918.025 941.284 918.025C971.967 918.025 992.598 930.248 995.178 931.596" fill="#049FD9"/>
<path d="M413.575 378.228C413.575 360.709 399.264 346.501 381.721 346.501C364.185 346.501 349.874 360.709 349.874 378.228V715.741C349.874 733.361 364.185 747.562 381.721 747.562C399.264 747.562 413.575 733.361 413.575 715.741V378.228ZM238.632 498.037C238.632 480.524 224.327 466.297 206.784 466.297C189.242 466.297 174.937 480.524 174.937 498.037V652.335C174.937 669.949 189.242 684.156 206.784 684.156C224.327 684.156 238.632 669.949 238.632 652.335V498.037ZM63.6947 585.611C63.6947 568.092 49.3898 553.891 31.8473 553.891C14.3252 553.891 0 568.092 0 585.611V652.335C0 669.949 14.3252 684.156 31.8473 684.156C49.3898 684.156 63.6947 669.949 63.6947 652.335" fill="#049FD9"/>
<path d="M349.874 378.228C349.874 360.709 364.186 346.501 381.728 346.501C399.264 346.501 413.575 360.709 413.575 378.228V715.741C413.575 733.361 399.264 747.562 381.728 747.562C364.186 747.562 349.874 733.361 349.874 715.741V378.228ZM524.818 498.037C524.818 480.524 539.123 466.297 556.665 466.297C574.207 466.297 588.512 480.524 588.512 498.037V652.335C588.512 669.949 574.207 684.156 556.665 684.156C539.123 684.156 524.818 669.949 524.818 652.335V498.037ZM699.755 585.611C699.755 568.092 714.059 553.891 731.602 553.891C749.124 553.891 763.449 568.092 763.449 585.611V652.335C763.449 669.949 749.124 684.156 731.602 684.156C714.059 684.156 699.755 669.949 699.755 652.335" fill="#049FD9"/>
<path d="M1049.42 378.228C1049.42 360.709 1063.74 346.501 1081.28 346.501C1098.81 346.501 1113.13 360.709 1113.13 378.228V715.741C1113.13 733.361 1098.81 747.562 1081.28 747.562C1063.74 747.562 1049.42 733.361 1049.42 715.741V378.228ZM1224.37 498.037C1224.37 480.524 1238.67 466.297 1256.22 466.297C1273.76 466.297 1288.06 480.524 1288.06 498.037V652.335C1288.06 669.949 1273.76 684.156 1256.22 684.156C1238.67 684.156 1224.37 669.949 1224.37 652.335V498.037ZM1399.31 585.611C1399.31 568.092 1413.61 553.891 1431.15 553.891C1448.67 553.891 1463 568.092 1463 585.611V652.335C1463 669.949 1448.67 684.156 1431.15 684.156C1413.61 684.156 1399.31 669.949 1399.31 652.335" fill="#049FD9"/>
<path d="M1113.13 378.228C1113.13 360.709 1098.81 346.501 1081.27 346.501C1063.74 346.501 1049.42 360.709 1049.42 378.228V715.741C1049.42 733.361 1063.74 747.562 1081.27 747.562C1098.81 747.562 1113.13 733.361 1113.13 715.741V378.228ZM938.182 498.037C938.182 480.524 923.877 466.297 906.335 466.297C888.793 466.297 874.488 480.524 874.488 498.037V652.335C874.488 669.949 888.793 684.156 906.335 684.156C923.877 684.156 938.182 669.949 938.182 652.335V498.037ZM763.245 585.611C763.245 568.092 748.941 553.891 731.398 553.891C713.876 553.891 699.551 568.092 699.551 585.611V652.335C699.551 669.949 713.876 684.156 731.398 684.156C748.941 684.156 763.245 669.949 763.245 652.335" fill="#049FD9"/>
</svg>
