<svg width="1707" height="1908" viewBox="0 0 1707 1908" fill="none" xmlns="http://www.w3.org/2000/svg">
<path fill-rule="evenodd" clip-rule="evenodd" d="M619.754 1.27488C615.904 1.88488 611.771 2.94388 610.57 3.62688C609.368 4.30988 607.526 4.86888 606.475 4.86888C605.424 4.86888 603.749 5.76888 602.754 6.86888C601.759 7.96888 599.889 8.86888 598.599 8.86888C597.309 8.86888 596.254 9.34188 596.254 9.91988C596.254 10.4979 594.577 11.6719 592.527 12.5279C588.477 14.2199 572.773 29.5169 570.104 34.3689C567.934 38.3129 563.833 46.6009 562.187 50.3689C561.466 52.0189 560.016 57.1939 558.965 61.8689C557.293 69.3029 556.95 76.7619 556.227 121.369C555.717 152.855 554.985 173.708 554.314 175.869C553.658 177.983 552.936 196.453 552.491 222.515C551.819 261.837 551.596 265.835 549.977 267.624C548.532 269.219 546.298 269.718 538.053 270.286C532.473 270.67 527.108 271.412 526.133 271.934C525.157 272.456 520.173 273.137 515.056 273.447C509.94 273.756 503.954 274.616 501.754 275.357C499.554 276.098 494.675 277.007 490.912 277.376C487.149 277.746 482.551 278.683 480.694 279.458C478.837 280.234 474.929 280.869 472.009 280.869C468.795 280.869 465.811 281.491 464.45 282.444C463.214 283.31 459.626 284.271 456.478 284.579C453.33 284.888 450.167 285.604 449.451 286.171C448.734 286.738 445.359 287.761 441.951 288.444C438.542 289.126 434.404 290.129 432.754 290.673C420.297 294.774 416.498 295.869 414.727 295.869C413.611 295.869 411.788 296.507 410.675 297.286C409.562 298.066 406.875 299.03 404.703 299.428C402.531 299.827 399.866 300.764 398.781 301.511C397.697 302.258 395.659 302.869 394.254 302.869C392.849 302.869 390.811 303.487 389.727 304.241C388.642 304.996 386.179 305.953 384.254 306.369C382.329 306.785 379.866 307.742 378.781 308.497C377.697 309.251 375.986 309.869 374.98 309.869C373.973 309.869 371.374 310.769 369.202 311.869C367.031 312.969 363.477 314.769 361.306 315.869C359.134 316.969 356.696 317.869 355.887 317.869C355.078 317.869 353.142 318.488 351.585 319.246C350.028 320.003 346.729 321.535 344.254 322.65C330.736 328.74 295.513 346.755 293.477 348.619C292.726 349.307 291.266 349.869 290.232 349.869C289.199 349.869 287.994 350.462 287.554 351.188C287.114 351.913 284.176 353.965 281.025 355.749C277.874 357.532 275.035 359.414 274.716 359.93C274.397 360.447 273.332 360.869 272.35 360.869C271.368 360.869 269.749 361.769 268.754 362.869C267.759 363.969 266.614 364.869 266.21 364.869C265.33 364.869 249.39 375.189 247.254 377.143C246.429 377.897 243.954 379.572 241.754 380.866C239.554 382.16 236.972 383.928 236.016 384.794C235.061 385.66 233.486 387.077 232.516 387.941C231.547 388.806 228.954 390.587 226.754 391.9C224.554 393.212 222.304 394.806 221.754 395.443C221.204 396.079 218.279 398.479 215.254 400.775C208.911 405.589 203.168 410.293 199.638 413.564C198.283 414.82 194.046 418.343 190.224 421.393C179.813 429.699 143.723 466.01 134.754 477.201C133.104 479.26 130.694 482.165 129.399 483.657C120.282 494.154 118.107 496.8 115.815 500.181C114.394 502.277 111.661 505.608 109.742 507.584C107.824 509.559 106.254 511.623 106.254 512.169C106.254 512.716 104.572 515.216 102.516 517.725C100.46 520.233 97.9258 523.877 96.8838 525.821C95.8418 527.765 93.5288 531.158 91.7438 533.362C89.9588 535.566 88.1878 538.381 87.8088 539.619C87.4288 540.856 86.7428 541.869 86.2818 541.869C85.8218 541.869 83.9908 544.457 82.2138 547.619C80.4368 550.782 78.6978 553.594 78.3478 553.869C77.9988 554.144 77.1548 555.494 76.4728 556.869C75.7908 558.244 74.3518 560.719 73.2748 562.369C72.1988 564.019 70.6738 566.777 69.8878 568.497C69.1008 570.217 67.9618 571.931 67.3558 572.306C66.7498 572.681 66.2538 573.792 66.2538 574.775C66.2538 575.758 65.3538 577.601 64.2538 578.869C63.1538 580.137 62.2538 581.726 62.2538 582.4C62.2538 583.073 61.6078 584.16 60.8178 584.816C60.0288 585.471 59.0998 587.295 58.7538 588.869C58.4078 590.443 57.4788 592.267 56.6898 592.922C55.8998 593.578 55.2538 594.89 55.2538 595.838C55.2538 596.787 54.3538 598.601 53.2538 599.869C52.1538 601.137 51.2538 602.951 51.2538 603.9C51.2538 604.848 50.5788 606.184 49.7538 606.869C48.9288 607.554 48.2538 609.123 48.2538 610.357C48.2538 611.59 47.3538 613.743 46.2538 615.142C45.1538 616.54 44.2538 618.178 44.2538 618.78C44.2538 619.383 43.3538 621.555 42.2538 623.608C41.1538 625.66 40.2538 628.078 40.2538 628.982C40.2538 629.885 39.5788 631.184 38.7538 631.869C37.9288 632.554 37.2508 634.296 37.2468 635.741C37.2438 637.187 36.3468 639.719 35.2538 641.369C34.1608 643.019 33.2638 645.281 33.2608 646.396C33.2568 647.512 32.6358 649.312 31.8818 650.396C31.1268 651.481 30.1748 653.944 29.7658 655.869C29.3578 657.794 28.4268 660.494 27.6988 661.869C26.9698 663.244 26.1098 666.011 25.7878 668.019C25.4648 670.026 24.5378 672.218 23.7278 672.891C22.9168 673.564 22.2538 675.759 22.2538 677.769C22.2538 679.779 21.6208 682.328 20.8468 683.432C20.0738 684.537 19.1248 687.674 18.7388 690.405C18.3528 693.135 17.4818 696.269 16.8028 697.369C16.1238 698.469 15.2868 701.788 14.9428 704.745C14.5998 707.703 13.6288 711.174 12.7858 712.46C11.9168 713.786 11.2538 717 11.2538 719.883C11.2538 722.68 10.6268 726.183 9.85984 727.669C9.09384 729.154 8.13783 733.969 7.73583 738.369C7.33383 742.769 6.44783 747.494 5.76783 748.869C5.08683 750.244 4.23783 756.39 3.87983 762.526C3.48983 769.21 2.57583 775.223 1.59883 777.526C0.159834 780.92 -0.027167 787.562 0.00283298 834.369C0.032833 880.487 0.242836 887.845 1.62284 891.032C2.56384 893.207 3.47583 899.299 3.86883 906.032C4.23283 912.267 5.08683 918.494 5.76783 919.869C6.44783 921.244 7.33383 925.969 7.73583 930.369C8.13783 934.769 9.09384 939.584 9.85984 941.069C10.6268 942.555 11.2538 946.058 11.2538 948.855C11.2538 951.738 11.9168 954.952 12.7858 956.278C13.6288 957.564 14.5998 961.035 14.9428 963.993C15.2868 966.95 16.1238 970.269 16.8028 971.369C17.4818 972.469 18.3528 975.603 18.7388 978.333C19.1248 981.064 20.0738 984.201 20.8468 985.306C21.6208 986.41 22.2538 988.959 22.2538 990.969C22.2538 992.979 22.9168 995.174 23.7278 995.847C24.5378 996.52 25.4648 998.712 25.7878 1000.72C26.1098 1002.73 26.9698 1005.49 27.6988 1006.87C28.4268 1008.24 29.3578 1010.94 29.7658 1012.87C30.1748 1014.79 31.1268 1017.26 31.8818 1018.34C32.6358 1019.43 33.2568 1021.23 33.2608 1022.34C33.2638 1023.46 34.1608 1025.72 35.2538 1027.37C36.3468 1029.02 37.2438 1031.35 37.2468 1032.56C37.2508 1033.76 37.7038 1035.03 38.2548 1035.37C38.8048 1035.71 39.7548 1037.97 40.3658 1040.4C40.9758 1042.82 42.1008 1045.33 42.8648 1045.96C43.6288 1046.59 44.2538 1048 44.2538 1049.08C44.2538 1050.17 45.1538 1052.2 46.2538 1053.6C47.3538 1054.99 48.2538 1057.01 48.2538 1058.07C48.2538 1059.14 48.9288 1060.69 49.7538 1061.51C50.5788 1062.34 51.2538 1063.81 51.2538 1064.78C51.2538 1065.76 52.1538 1067.37 53.2538 1068.37C54.3538 1069.36 55.2538 1071.18 55.2538 1072.4C55.2538 1073.62 55.8998 1075.16 56.6898 1075.82C57.4788 1076.47 58.4068 1078.29 58.7508 1079.85C59.0948 1081.42 60.0238 1082.95 60.8148 1083.25C61.6058 1083.56 62.2538 1084.54 62.2538 1085.43C62.2538 1086.32 63.1538 1088.2 64.2538 1089.6C65.3538 1090.99 66.2538 1092.95 66.2538 1093.94C66.2538 1094.94 66.7498 1096.06 67.3558 1096.43C67.9618 1096.81 69.1138 1098.52 69.9158 1100.24C72.0778 1104.88 73.7348 1107.64 75.5928 1109.69C76.5058 1110.7 77.2538 1111.91 77.2538 1112.37C77.2538 1112.83 77.8618 1113.92 78.6048 1114.79C79.3488 1115.66 81.0358 1118.37 82.3548 1120.83C83.6748 1123.28 85.5418 1126.09 86.5038 1127.08C87.4668 1128.06 88.2538 1129.38 88.2538 1130.02C88.2538 1130.65 89.7698 1133.01 91.6218 1135.27C93.4738 1137.53 95.8368 1140.96 96.8718 1142.88C97.9068 1144.81 99.6538 1147.34 100.754 1148.51C103.888 1151.84 106.251 1155.18 106.282 1156.32C106.297 1156.9 107.617 1158.65 109.215 1160.22C110.813 1161.79 113.38 1164.94 114.919 1167.22C116.458 1169.5 121.748 1175.99 126.676 1181.63C131.603 1187.28 136.336 1192.95 137.194 1194.23C139.623 1197.87 144.186 1202.63 166.722 1225.03C178.254 1236.49 188.102 1245.87 188.607 1245.87C189.112 1245.87 193.176 1249.14 197.639 1253.15C205.901 1260.56 224.31 1275.09 232.004 1280.28C234.341 1281.85 236.254 1283.48 236.254 1283.9C236.254 1284.32 238.131 1285.64 240.425 1286.84C242.719 1288.04 246.477 1290.56 248.778 1292.44C251.078 1294.33 253.438 1295.87 254.022 1295.87C254.606 1295.87 256.135 1296.78 257.419 1297.9C260.296 1300.39 271.495 1307.8 272.454 1307.84C272.839 1307.86 275.131 1309.2 277.547 1310.83C279.964 1312.46 283.137 1314.25 284.598 1314.81C286.059 1315.36 287.254 1316.24 287.254 1316.76C287.254 1317.28 288.599 1318 290.243 1318.37C291.886 1318.73 293.516 1319.48 293.865 1320.05C294.213 1320.61 295.906 1321.73 297.626 1322.53C302.082 1324.61 305.248 1326.46 306.538 1327.75C307.152 1328.37 308.409 1328.87 309.332 1328.87C310.254 1328.87 311.545 1329.51 312.201 1330.3C312.856 1331.09 314.68 1332.02 316.254 1332.37C317.828 1332.71 319.628 1333.61 320.254 1334.37C320.88 1335.12 322.68 1336.02 324.254 1336.37C325.828 1336.71 327.652 1337.64 328.307 1338.43C328.963 1339.22 330.254 1339.87 331.176 1339.87C332.099 1339.87 333.358 1340.37 333.975 1340.99C335.231 1342.25 345.554 1346.78 348.973 1347.57C350.194 1347.86 351.712 1348.72 352.346 1349.48C352.98 1350.24 354.469 1350.87 355.654 1350.87C356.839 1350.87 358.71 1351.5 359.811 1352.27C360.911 1353.04 363.712 1354.18 366.033 1354.81C368.355 1355.43 370.254 1356.38 370.254 1356.91C370.254 1357.44 371.492 1357.87 373.004 1357.88C374.516 1357.88 377.104 1358.78 378.754 1359.87C380.404 1360.96 382.361 1361.86 383.103 1361.86C383.845 1361.87 385.87 1362.52 387.603 1363.31C389.336 1364.1 392.648 1365.24 394.962 1365.84C397.276 1366.43 399.44 1367.36 399.771 1367.9C400.101 1368.43 401.5 1368.87 402.878 1368.87C404.256 1368.87 407.492 1369.71 410.069 1370.74C416.959 1373.49 428.452 1376.9 430.781 1376.88C431.897 1376.88 433.697 1377.48 434.781 1378.22C435.866 1378.96 438.899 1379.85 441.521 1380.2C444.143 1380.55 447.608 1381.52 449.222 1382.35C450.835 1383.19 453.766 1383.87 455.736 1383.87C457.706 1383.87 460.881 1384.52 462.791 1385.32C464.7 1386.12 469.073 1387.08 472.508 1387.45C475.944 1387.83 479.879 1388.69 481.254 1389.37C482.629 1390.05 487.115 1390.93 491.223 1391.32C495.331 1391.71 499.569 1392.5 500.64 1393.08C501.712 1393.65 507.744 1394.5 514.044 1394.97C520.345 1395.44 526.007 1396.25 526.627 1396.76C527.247 1397.28 535.99 1398.18 546.056 1398.78C556.122 1399.37 565.205 1400.31 566.24 1400.86C568.639 1402.15 649.701 1402.23 652.09 1400.96C653.027 1400.45 661.885 1399.5 671.774 1398.83C681.663 1398.17 690.308 1397.18 690.985 1396.64C691.662 1396.1 697.062 1395.42 702.985 1395.13C709.096 1394.83 714.931 1394.01 716.474 1393.23C717.97 1392.47 722.695 1391.56 726.974 1391.22C731.253 1390.87 735.908 1390.01 737.318 1389.3C738.727 1388.59 742.777 1387.68 746.318 1387.28C749.858 1386.88 754.202 1385.95 755.972 1385.21C757.742 1384.47 760.667 1383.87 762.472 1383.86C764.277 1383.86 766.925 1383.24 768.357 1382.5C769.789 1381.75 773.158 1380.81 775.844 1380.41C778.53 1380 781.859 1379.11 783.241 1378.41C784.623 1377.72 787.607 1376.86 789.872 1376.52C792.136 1376.17 795.286 1375.21 796.872 1374.38C798.457 1373.56 800.789 1372.88 802.054 1372.87C803.318 1372.87 805.634 1372.21 807.199 1371.4C808.764 1370.59 811.883 1369.63 814.13 1369.27C816.378 1368.91 818.73 1368 819.358 1367.24C819.985 1366.49 821.587 1365.87 822.916 1365.87C824.246 1365.87 827.098 1364.97 829.254 1363.87C831.41 1362.77 834.262 1361.87 835.592 1361.87C836.921 1361.87 838.545 1361.22 839.201 1360.43C839.856 1359.64 841.824 1358.69 843.573 1358.31C845.323 1357.92 847.642 1357 848.727 1356.24C849.811 1355.49 851.522 1354.87 852.528 1354.87C853.535 1354.87 856.247 1353.9 858.556 1352.72C868.613 1347.59 870.239 1346.87 871.774 1346.87C872.666 1346.87 874.072 1346.19 874.897 1345.37C875.722 1344.54 877.435 1343.87 878.703 1343.87C879.971 1343.87 881.545 1343.22 882.201 1342.43C882.856 1341.64 884.68 1340.71 886.254 1340.37C887.828 1340.02 889.652 1339.09 890.307 1338.3C890.963 1337.51 892.16 1336.87 892.969 1336.87C893.777 1336.87 895.583 1335.97 896.981 1334.87C898.38 1333.77 900.308 1332.87 901.266 1332.87C902.225 1332.87 903.545 1332.22 904.201 1331.43C904.856 1330.64 906.711 1329.71 908.323 1329.35C909.935 1329 911.254 1328.33 911.254 1327.86C911.254 1327.39 912.267 1326.69 913.504 1326.32C914.742 1325.94 916.429 1325.06 917.254 1324.37C918.079 1323.67 919.879 1322.78 921.254 1322.37C922.629 1321.97 924.654 1320.89 925.754 1319.97C926.854 1319.05 929.779 1317.23 932.254 1315.92C934.729 1314.62 939.004 1312.11 941.754 1310.35C944.504 1308.59 948.32 1306.3 950.235 1305.26C952.149 1304.22 955.974 1301.82 958.735 1299.93C961.495 1298.04 966.454 1294.66 969.754 1292.43C973.054 1290.2 976.204 1287.88 976.754 1287.27C977.304 1286.67 979.554 1285.13 981.754 1283.84C983.954 1282.56 986.429 1280.91 987.254 1280.17C988.079 1279.43 992.352 1276.1 996.749 1272.76C1001.15 1269.42 1004.97 1266.38 1005.25 1265.99C1005.72 1265.33 1014.08 1258.62 1019.42 1254.62C1027.99 1248.19 1068.12 1208.83 1080.78 1194.44C1084.62 1190.09 1088.77 1185.53 1090 1184.33C1091.24 1183.12 1092.25 1181.8 1092.25 1181.39C1092.25 1180.67 1098.44 1172.98 1103 1168.02C1104.24 1166.68 1106.78 1163.28 1108.65 1160.47C1110.51 1157.67 1113.1 1154.19 1114.4 1152.76C1115.69 1151.32 1117.43 1148.99 1118.25 1147.56C1119.08 1146.14 1122.45 1141.03 1125.75 1136.21C1129.05 1131.38 1131.98 1126.97 1132.25 1126.4C1133.48 1123.86 1136.82 1119.3 1137.98 1118.57C1138.68 1118.13 1139.25 1116.92 1139.25 1115.89C1139.25 1114.86 1139.97 1113.3 1140.84 1112.42C1141.71 1111.55 1143.59 1108.71 1145 1106.1C1146.42 1103.5 1148.63 1099.57 1149.91 1097.37C1151.2 1095.17 1152.94 1092.02 1153.77 1090.37C1154.6 1088.72 1155.68 1086.69 1156.16 1085.87C1156.64 1085.04 1157.53 1083.24 1158.14 1081.87C1158.74 1080.49 1159.69 1078.58 1160.25 1077.62C1160.8 1076.66 1161.71 1075.08 1162.26 1074.12C1162.81 1073.16 1163.76 1071.24 1164.37 1069.87C1164.97 1068.49 1165.87 1066.69 1166.37 1065.87C1166.86 1065.04 1167.51 1063.69 1167.81 1062.87C1168.11 1062.04 1169.23 1059.7 1170.3 1057.67C1171.38 1055.64 1172.25 1053.33 1172.25 1052.54C1172.25 1051.76 1172.93 1050.55 1173.75 1049.87C1174.58 1049.18 1175.26 1047.89 1175.26 1047C1175.26 1046.1 1175.97 1044.03 1176.82 1042.39C1177.68 1040.75 1179.53 1036.47 1180.95 1032.89C1182.36 1029.3 1183.95 1025.83 1184.47 1025.17C1185.33 1024.08 1189.53 1021.93 1197.75 1018.38C1207.66 1014.1 1211.02 1012.59 1213.25 1011.42C1214.63 1010.69 1217.18 1009.79 1218.93 1009.42C1220.68 1009.05 1222.65 1008.09 1223.31 1007.3C1223.96 1006.51 1225.51 1005.87 1226.75 1005.87C1227.99 1005.87 1229.54 1005.22 1230.2 1004.43C1230.86 1003.64 1232.8 1002.69 1234.52 1002.31C1236.23 1001.93 1238.26 1001 1239.02 1000.25C1239.78 999.489 1241.08 998.869 1241.92 998.869C1242.76 998.869 1244.64 998.224 1246.1 997.437C1247.56 996.649 1251.45 994.829 1254.75 993.392C1258.05 991.955 1261.95 990.124 1263.41 989.324C1264.87 988.524 1266.95 987.869 1268.04 987.869C1269.12 987.869 1270.54 987.223 1271.2 986.433C1271.86 985.644 1273.82 984.694 1275.57 984.322C1277.32 983.95 1279.43 983.072 1280.25 982.369C1281.08 981.666 1283.18 980.788 1284.93 980.416C1286.68 980.044 1288.65 979.094 1289.31 978.305C1289.96 977.515 1291.51 976.869 1292.75 976.869C1293.99 976.869 1295.57 976.194 1296.25 975.369C1296.94 974.544 1298.18 973.869 1299.01 973.869C1299.84 973.869 1301.92 973.018 1303.64 971.977C1305.35 970.936 1308.18 969.782 1309.93 969.413C1311.68 969.043 1313.65 968.094 1314.31 967.305C1314.96 966.515 1316.51 965.869 1317.75 965.869C1318.99 965.869 1320.53 965.241 1321.17 964.474C1321.8 963.706 1323.88 962.786 1325.79 962.428C1327.69 962.071 1329.25 961.385 1329.25 960.903C1329.25 960.422 1330.72 959.719 1332.5 959.341C1334.29 958.963 1337.16 957.802 1338.87 956.761C1340.59 955.72 1342.67 954.869 1343.5 954.869C1344.33 954.869 1345.57 954.194 1346.25 953.369C1346.94 952.544 1348.37 951.869 1349.43 951.869C1350.49 951.869 1353.02 951.003 1355.06 949.944C1357.09 948.886 1360.78 947.109 1363.25 945.995C1365.73 944.881 1369.81 943.047 1372.32 941.919C1374.83 940.792 1377.36 939.869 1377.95 939.869C1378.53 939.869 1379.57 939.194 1380.25 938.369C1380.94 937.544 1382.51 936.869 1383.75 936.869C1384.99 936.869 1386.54 936.229 1387.19 935.447C1387.84 934.665 1390.12 933.73 1392.25 933.369C1394.39 933.008 1396.67 932.073 1397.32 931.291C1397.97 930.509 1399.28 929.869 1400.24 929.869C1401.2 929.869 1403.13 928.969 1404.53 927.869C1405.92 926.769 1408.24 925.869 1409.66 925.869C1411.09 925.869 1412.25 925.428 1412.25 924.888C1412.25 924.349 1413.49 923.608 1415 923.242C1416.52 922.877 1419.33 921.798 1421.25 920.845C1425.05 918.968 1431.69 915.95 1437.25 913.577C1448.41 908.82 1451.11 907.605 1454.45 905.831C1456.49 904.752 1459.02 903.869 1460.08 903.869C1461.14 903.869 1462.57 903.194 1463.25 902.369C1463.94 901.544 1465.51 900.869 1466.75 900.869C1467.99 900.869 1469.57 900.194 1470.25 899.369C1470.94 898.544 1472.01 897.855 1472.63 897.838C1473.25 897.821 1476 896.7 1478.75 895.347C1481.5 893.994 1484.49 892.883 1485.38 892.878C1486.28 892.873 1487.57 892.194 1488.25 891.369C1488.94 890.544 1490.23 889.866 1491.13 889.862C1492.02 889.859 1494.1 888.962 1495.75 887.869C1497.4 886.776 1499.45 885.879 1500.29 885.876C1501.14 885.872 1503.6 884.969 1505.75 883.869C1507.91 882.769 1510.2 881.869 1510.84 881.869C1511.48 881.869 1512.57 881.194 1513.25 880.369C1513.94 879.544 1515.38 878.869 1516.47 878.869C1517.55 878.869 1519.58 877.969 1520.98 876.869C1522.38 875.769 1524.53 874.869 1525.77 874.869C1527 874.869 1528.57 874.194 1529.25 873.369C1529.94 872.544 1531.16 871.869 1531.97 871.869C1532.78 871.869 1534.64 871.224 1536.1 870.436C1540.68 867.965 1550.44 863.869 1551.75 863.869C1552.44 863.869 1553.57 863.194 1554.25 862.369C1554.94 861.544 1556.37 860.869 1557.43 860.869C1558.49 860.869 1561.13 859.969 1563.31 858.869C1565.48 857.769 1569.03 855.969 1571.2 854.869C1573.37 853.769 1575.79 852.869 1576.58 852.869C1577.37 852.869 1578.57 852.194 1579.25 851.369C1579.94 850.544 1581.39 849.869 1582.47 849.869C1583.56 849.869 1585.64 849.214 1587.1 848.414C1588.56 847.614 1592.45 845.775 1595.75 844.327C1599.05 842.88 1603.1 841.087 1604.75 840.344C1606.4 839.601 1610 838.03 1612.75 836.854C1615.5 835.677 1618.88 834.135 1620.25 833.428C1621.63 832.72 1624.05 831.832 1625.62 831.456C1627.2 831.079 1629.15 830.117 1629.95 829.32C1630.74 828.522 1632.43 827.869 1633.7 827.869C1634.97 827.869 1636.57 827.194 1637.25 826.369C1637.94 825.544 1638.96 824.869 1639.52 824.869C1640.08 824.869 1642.61 823.902 1645.14 822.719C1647.68 821.537 1651.78 819.677 1654.25 818.586C1661.13 815.555 1663.37 814.472 1668.24 811.816C1674.67 808.312 1690.5 792.298 1693.62 786.134C1695.05 783.316 1696.62 780.759 1697.12 780.451C1697.62 780.143 1698.34 778.199 1698.72 776.13C1699.11 774.061 1700 771.694 1700.71 770.869C1701.42 770.044 1702.29 767.119 1702.64 764.369C1702.99 761.619 1703.93 757.569 1704.73 755.369C1706.96 749.169 1706.98 194.17 1704.74 187.843C1703.91 185.491 1702.95 181.163 1702.61 178.227C1702.26 175.29 1701.37 172.378 1700.62 171.756C1699.87 171.133 1699.25 169.976 1699.25 169.185C1699.25 167.088 1694.46 157.282 1692.73 155.849C1691.92 155.175 1691.25 153.941 1691.25 153.106C1691.25 150.856 1673.94 134.183 1669.81 132.459C1667.86 131.64 1666.25 130.498 1666.25 129.92C1666.25 129.342 1665.2 128.869 1663.91 128.869C1662.62 128.869 1660.75 127.969 1659.75 126.869C1658.76 125.769 1656.76 124.869 1655.32 124.869C1653.88 124.869 1651.81 124.259 1650.73 123.514C1649.64 122.769 1644.53 121.625 1639.36 120.972C1634.19 120.319 1629.24 119.413 1628.36 118.958C1627.48 118.503 1621.17 117.816 1614.35 117.431C1607.53 117.046 1600.33 116.123 1598.35 115.381C1596.37 114.639 1589.31 113.815 1582.65 113.551C1576 113.287 1569.7 112.601 1568.65 112.027C1567.61 111.453 1560.77 110.511 1553.45 109.933C1546.14 109.356 1539.39 108.492 1538.45 108.012C1537.52 107.533 1531.25 106.878 1524.53 106.556C1517.81 106.234 1511.33 105.445 1510.13 104.803C1508.93 104.161 1501.69 103.269 1494.04 102.822C1486.39 102.375 1479.59 101.571 1478.94 101.036C1478.29 100.501 1471.68 99.7419 1464.25 99.3489C1455.85 98.9049 1450.19 98.1599 1449.25 97.3769C1448.29 96.5689 1443 95.9359 1434.5 95.6099C1427.2 95.3299 1420.65 94.6119 1419.93 94.0139C1419.21 93.4159 1413.47 92.6499 1407.19 92.3109C1400.9 91.9719 1393.5 91.1029 1390.75 90.3789C1388 89.6549 1380.59 88.7489 1374.28 88.3669C1367.96 87.9839 1361.21 87.0739 1359.28 86.3449C1357.34 85.6159 1350.25 84.8249 1343.53 84.5879C1336.81 84.3509 1330.73 83.6809 1330.03 83.0999C1329.33 82.5179 1323.35 81.7509 1316.75 81.3939C1310.15 81.0369 1302.95 80.1409 1300.75 79.4019C1298.55 78.6629 1291.58 77.8119 1285.25 77.5109C1278.87 77.2069 1271.81 76.2749 1269.38 75.4159C1266.68 74.4629 1261.5 73.8599 1255.88 73.8449C1250.86 73.8319 1244.95 73.3429 1242.75 72.7569C1240.55 72.1719 1232.25 71.0569 1224.3 70.2779C1216.35 69.4999 1209.4 68.4149 1208.85 67.8659C1208.3 67.3179 1203.78 66.8419 1198.8 66.8089C1193.83 66.7769 1187.5 66.3009 1184.75 65.7519C1182 65.2029 1173.37 64.1359 1165.57 63.3809C1157.76 62.6249 1150.56 61.5839 1149.57 61.0659C1148.57 60.5489 1142.37 59.8039 1135.79 59.4119C1129.2 59.0189 1122 58.1089 1119.79 57.3879C1117.57 56.6679 1110.22 55.8479 1103.47 55.5669C1096.71 55.2849 1090.63 54.5929 1089.95 54.0299C1089.27 53.4659 1083.55 52.7159 1077.23 52.3619C1070.92 52.0069 1063.5 51.1019 1060.75 50.3499C1058 49.5979 1050.42 48.7109 1043.91 48.3789C1037.39 48.0469 1030.42 47.1579 1028.41 46.4039C1026.4 45.6489 1019.31 44.8149 1012.65 44.5509C1006 44.2869 999.696 43.6009 998.652 43.0269C997.608 42.4529 990.768 41.5109 983.452 40.9329C976.136 40.3559 969.386 39.4919 968.452 39.0119C967.518 38.5329 961.343 37.8819 954.728 37.5659C948.114 37.2489 941.364 36.4449 939.728 35.7799C938.093 35.1139 930.78 34.2319 923.478 33.8199C916.176 33.4069 909.651 32.6189 908.978 32.0669C908.305 31.5149 901.679 30.7309 894.254 30.3249C886.506 29.9009 879.902 29.0549 878.754 28.3389C877.566 27.5989 871.571 26.8869 863.983 26.5859C856.958 26.3069 850.628 25.5939 849.915 25.0029C849.202 24.4109 843.474 23.6499 837.186 23.3109C830.899 22.9719 823.504 22.1029 820.754 21.3789C818.004 20.6549 810.607 19.7499 804.315 19.3689C798.024 18.9879 791.724 18.2019 790.315 17.6219C788.907 17.0429 781.854 16.2359 774.642 15.8279C767.43 15.4199 760.653 14.6169 759.58 14.0439C758.508 13.4699 752.484 12.7159 746.192 12.3689C739.901 12.0219 732.954 11.1349 730.754 10.3989C728.554 9.66188 721.217 8.79388 714.448 8.46988C707.68 8.14488 701.155 7.34988 699.948 6.70288C698.742 6.05588 691.632 5.19788 684.15 4.79688C676.668 4.39588 669.693 3.60388 668.65 3.03588C666.508 1.86988 641.763 -0.208118 632.702 0.016882C629.43 0.097882 623.604 0.663881 619.754 1.27488ZM672.254 40.5529C672.254 42.1289 685.982 52.1839 702.719 62.8689C706.043 64.9909 732.481 82.9039 740.254 88.3009C748.677 94.1489 747.548 93.3859 763.754 104.191C771.454 109.325 787.429 120.052 799.254 128.029C811.079 136.006 825.929 145.986 832.254 150.207C838.579 154.427 844.204 158.215 844.755 158.625C847.066 160.345 859.687 168.867 872.754 177.531C880.454 182.637 888.554 188.102 890.754 189.676C894.373 192.265 920.656 209.946 924.487 212.369C927.855 214.498 946.781 227.396 947.254 227.884C948.503 229.172 966.464 240.869 967.192 240.869C967.641 240.869 968.56 241.533 969.234 242.345C969.908 243.157 974.35 246.36 979.107 249.462C983.863 252.565 989.072 256.024 990.683 257.149C994.929 260.113 1013.91 272.965 1019.75 276.833C1027.81 282.167 1036.19 287.829 1044.75 293.726C1049.15 296.757 1056.13 301.469 1060.25 304.199C1067.69 309.122 1070.27 310.864 1092.05 325.682C1098.26 329.91 1104.08 333.819 1104.99 334.369C1105.89 334.919 1109.14 337.077 1112.19 339.166C1115.25 341.254 1124.28 347.31 1132.25 352.625C1140.23 357.94 1146.98 362.555 1147.25 362.881C1147.53 363.208 1149.55 364.55 1151.75 365.863C1153.95 367.177 1157.6 369.741 1159.86 371.561C1162.11 373.38 1164.44 374.869 1165.04 374.869C1165.63 374.869 1166.71 375.435 1167.43 376.127C1168.16 376.818 1172.13 379.63 1176.25 382.374C1180.38 385.118 1184.2 387.719 1184.75 388.153C1185.3 388.588 1187.63 390.164 1189.93 391.656C1199.27 397.731 1232.79 420.323 1233.25 420.86C1233.53 421.178 1242.3 427.145 1252.75 434.12C1263.2 441.096 1275.61 449.405 1280.33 452.586C1285.05 455.767 1289.62 458.819 1290.48 459.369C1291.35 459.919 1296.25 463.182 1301.36 466.619L1310.67 472.869L1318.71 472.834C1326.11 472.801 1327.13 472.54 1331.4 469.584C1335.88 466.489 1346.48 457.564 1350.71 453.326C1351.84 452.203 1358.83 446.061 1366.25 439.677C1373.68 433.294 1381.33 426.645 1383.25 424.903C1385.18 423.16 1388.49 420.302 1390.62 418.552C1395.87 414.237 1403.3 407.805 1405.85 405.369C1407.01 404.269 1410.33 401.344 1413.23 398.869C1416.14 396.394 1419.54 393.469 1420.79 392.369C1422.04 391.269 1425.2 388.569 1427.82 386.369C1430.44 384.169 1433.3 381.654 1434.17 380.781C1435.04 379.907 1442.05 373.772 1449.75 367.146C1457.45 360.521 1465.17 353.811 1466.91 352.235C1468.65 350.659 1471.99 347.794 1474.33 345.869C1478.59 342.368 1487.77 334.438 1489.87 332.433C1493.75 328.733 1505.9 318.125 1507.65 316.905C1508.81 316.1 1510.88 314.38 1512.25 313.083C1513.63 311.785 1518.76 307.269 1523.66 303.046C1531.39 296.378 1537.03 291.476 1553.18 277.363C1555.07 275.716 1557.34 273.667 1558.24 272.808C1559.14 271.95 1560.8 270.6 1561.92 269.808C1563.05 269.017 1567.75 264.934 1572.36 260.735C1576.98 256.537 1582.33 251.829 1584.25 250.273C1586.18 248.718 1591.13 244.477 1595.25 240.849C1599.38 237.222 1607.93 229.797 1614.25 224.351C1625.25 214.879 1630.56 210.194 1634.12 206.823C1635.02 205.973 1638.23 203.287 1641.25 200.854C1644.28 198.421 1648.68 194.598 1651.04 192.359L1655.33 188.288L1653.29 183.68C1651.04 178.591 1646.41 174.061 1639.98 170.635C1635.91 168.469 1632.62 167.877 1608.25 164.928C1603.03 164.296 1593.8 163.096 1587.75 162.262C1581.7 161.428 1572.7 160.365 1567.75 159.9C1562.8 159.434 1555.6 158.579 1551.75 157.999C1547.9 157.419 1540.48 156.483 1535.25 155.919C1522.92 154.587 1510.84 153.148 1500.25 151.746C1495.58 151.127 1486.58 150.027 1480.25 149.301C1465.72 147.633 1453.86 146.183 1439.25 144.292C1432.93 143.472 1423.7 142.393 1418.75 141.894C1413.8 141.394 1406.6 140.527 1402.75 139.967C1398.9 139.407 1391.7 138.491 1386.75 137.931C1381.8 137.371 1373.48 136.429 1368.25 135.838C1363.03 135.247 1354.03 134.122 1348.25 133.337C1342.48 132.553 1334.6 131.666 1330.75 131.367C1326.9 131.068 1319.7 130.169 1314.75 129.37C1309.8 128.571 1301.25 127.46 1295.75 126.901C1284.7 125.779 1274.56 124.562 1257.25 122.283C1250.93 121.45 1241.7 120.359 1236.75 119.859C1231.8 119.359 1224.6 118.505 1220.75 117.962C1216.9 117.419 1209.48 116.502 1204.25 115.925C1182.96 113.572 1176.41 112.782 1169.25 111.708C1165.13 111.088 1156.35 110 1149.75 109.288C1136.11 107.818 1126.18 106.607 1104.75 103.803C1096.5 102.724 1088.26 101.847 1086.43 101.855C1084.61 101.862 1079.43 101.216 1074.93 100.417C1070.43 99.6189 1062.25 98.5209 1056.75 97.9779C1046.08 96.9239 1034.79 95.4469 1024.25 93.7229C1020.68 93.1379 1013.7 92.0889 1008.75 91.3909C1003.8 90.6929 996.379 89.5779 992.254 88.9139C988.129 88.2489 979.354 86.8389 972.754 85.7799C966.154 84.7209 956.929 83.1839 952.254 82.3649C947.579 81.5449 940.379 80.4419 936.254 79.9129C928.105 78.8679 919.492 77.5329 906.254 75.2619C901.579 74.4609 894.312 73.4239 890.105 72.9589C885.899 72.4929 882.011 71.8369 881.465 71.4999C880.92 71.1619 875.362 70.2179 869.114 69.3999C862.866 68.5819 855.729 67.4689 853.254 66.9259C850.779 66.3829 845.154 65.4339 840.754 64.8179C822.222 62.2209 814.444 61.0409 809.254 60.0359C806.229 59.4509 800.379 58.5299 796.254 57.9889C792.129 57.4479 786.279 56.5459 783.254 55.9849C775.624 54.5679 765.452 52.9299 754.254 51.3139C738.337 49.0169 731.131 47.8929 722.254 46.3249C717.579 45.4979 710.222 44.3879 705.906 43.8579C701.589 43.3269 696.414 42.4729 694.406 41.9599C692.397 41.4469 687.829 40.7429 684.254 40.3959C680.679 40.0479 676.517 39.5269 675.004 39.2369C672.808 38.8159 672.254 39.0809 672.254 40.5529ZM608.278 65.3309C605.668 69.5539 605.075 77.5279 603.295 132.369C602.705 150.519 601.509 185.332 600.636 209.731C599.202 249.794 599.199 254.242 600.598 255.642C602.392 257.436 615.557 258.74 632.754 258.828C638.804 258.859 647.579 259.348 652.254 259.915C656.929 260.482 666.829 261.593 674.254 262.385C691.512 264.225 701.623 265.606 712.254 267.573C716.929 268.439 723.288 269.479 726.384 269.885C729.481 270.291 734.206 271.11 736.884 271.706C739.563 272.301 746.254 273.72 751.754 274.859C770.426 278.725 780.743 281.109 784.787 282.491C787.006 283.249 789.481 283.862 790.287 283.855C791.094 283.847 794.792 284.747 798.504 285.855C802.216 286.962 808.517 288.789 812.504 289.914C816.491 291.039 821.779 292.572 824.254 293.321C826.729 294.07 832.129 295.688 836.254 296.916C844.069 299.242 852.517 302.209 857.905 304.518C859.638 305.261 861.663 305.884 862.405 305.903C863.147 305.922 865.554 306.806 867.754 307.869C869.954 308.932 872.194 309.816 872.732 309.835C873.917 309.876 890.144 316.267 895.864 318.945C898.124 320.003 900.45 320.869 901.032 320.869C901.615 320.869 903.366 321.537 904.923 322.352C909.888 324.954 925.341 331.869 926.191 331.869C926.641 331.869 927.569 332.544 928.254 333.369C928.939 334.194 930.231 334.876 931.126 334.884C932.022 334.892 933.879 335.528 935.254 336.298C936.629 337.067 940.229 338.913 943.254 340.4C946.279 341.886 949.429 343.672 950.254 344.368C951.079 345.063 952.787 345.947 954.048 346.332C957.596 347.414 984.68 363.105 999.499 372.664C1007.33 377.713 1019.19 385.838 1022.36 388.324C1023.8 389.449 1025.99 391.044 1027.24 391.869C1028.48 392.694 1030.01 393.819 1030.63 394.369C1031.25 394.919 1033.55 396.691 1035.75 398.307C1041.01 402.169 1061.41 419.091 1067.74 424.84C1088.52 443.727 1117.22 475.351 1130.75 494.292C1131.85 495.831 1133.22 497.603 1133.8 498.23C1136.37 501.027 1154.63 529.584 1161.4 541.369C1167.89 552.693 1177.76 572.083 1181.75 581.369C1182.46 583.019 1183.99 586.443 1185.15 588.979C1186.3 591.514 1187.25 593.901 1187.25 594.283C1187.25 594.666 1188.07 596.867 1189.08 599.174C1191.93 605.742 1193.42 609.669 1199.17 625.869C1199.86 627.794 1201.02 631.619 1201.77 634.369C1202.51 637.119 1204.09 642.519 1205.27 646.369C1206.45 650.219 1208.02 655.989 1208.76 659.192C1209.49 662.394 1210.39 665.769 1210.75 666.692C1211.12 667.614 1212.04 671.519 1212.8 675.369C1213.56 679.219 1214.68 684.844 1215.29 687.869C1218.17 702.279 1219.3 709.142 1220.31 718.344C1220.92 723.83 1221.59 728.612 1221.82 728.97C1222.04 729.329 1223.13 740.996 1224.24 754.897C1227.49 795.624 1226.57 844.459 1221.79 885.369C1220.95 892.519 1219.82 902.194 1219.27 906.869C1218.09 916.941 1216.53 927.449 1215.18 934.369C1214.64 937.119 1213.68 943.316 1213.05 948.141C1211.72 958.278 1212.32 959.757 1216.83 957.404C1218.44 956.567 1220.2 955.878 1220.75 955.874C1221.3 955.87 1224.9 954.3 1228.75 952.385C1232.6 950.47 1236.27 948.895 1236.89 948.886C1237.52 948.877 1241.22 947.294 1245.12 945.369C1249.01 943.444 1252.5 941.869 1252.87 941.869C1253.23 941.869 1255.5 940.969 1257.89 939.869C1262.05 937.962 1267.92 935.358 1275 932.281C1279.22 930.447 1283.36 928.619 1290.75 925.322C1298.96 921.663 1305.36 918.851 1307.75 917.86C1309.52 917.126 1315.41 914.547 1324.75 910.412C1326.4 909.682 1329.83 908.136 1332.36 906.977C1334.9 905.818 1337.26 904.869 1337.61 904.869C1337.96 904.869 1341.29 903.469 1345 901.757C1356.38 896.514 1361.75 894.144 1374.25 888.841C1378.38 887.092 1384.45 884.405 1387.75 882.87C1391.05 881.334 1398.25 878.183 1403.75 875.866C1409.25 873.55 1416.57 870.353 1420.01 868.762C1423.45 867.171 1426.51 865.869 1426.82 865.869C1427.52 865.869 1437.86 861.213 1441.41 859.301C1442.87 858.514 1444.73 857.869 1445.54 857.869C1446.35 857.869 1447.57 857.194 1448.25 856.369C1448.94 855.544 1450.14 854.869 1450.92 854.869C1451.71 854.869 1455.71 853.294 1459.82 851.369C1463.93 849.444 1467.54 847.869 1467.84 847.869C1468.13 847.869 1470.94 846.705 1474.07 845.282C1477.19 843.859 1481.1 842.108 1482.75 841.39C1484.4 840.672 1488 839.097 1490.75 837.889C1493.5 836.681 1497.22 835.058 1499 834.281C1507.49 830.595 1509.15 829.868 1514.75 827.391C1518.05 825.933 1522.1 824.154 1523.75 823.439C1525.4 822.724 1528.33 821.446 1530.25 820.6C1532.18 819.754 1536 818.09 1538.75 816.903C1541.5 815.716 1545.1 814.141 1546.75 813.403C1550.52 811.72 1557.82 808.497 1564 805.789C1566.62 804.645 1570.6 802.845 1572.86 801.789C1575.12 800.733 1577.27 799.869 1577.64 799.869C1578.01 799.869 1581.56 798.364 1585.53 796.525C1589.5 794.686 1600.85 789.681 1610.75 785.402C1645.12 770.549 1648.81 768.219 1654.35 757.869L1656.75 753.369L1657.02 505.251C1657.31 229.374 1657.87 251.394 1650.63 258.016C1648.62 259.86 1646.22 262.044 1645.31 262.869C1644.41 263.694 1640.99 266.619 1637.73 269.369C1634.47 272.119 1631.08 275.044 1630.2 275.869C1626.9 278.953 1614.63 289.707 1611.25 292.462C1609.33 294.034 1604.15 298.489 1599.75 302.362C1595.35 306.235 1590.21 310.746 1588.33 312.387C1586.44 314.027 1584.16 316.071 1583.27 316.93C1582.37 317.788 1580.71 319.138 1579.59 319.93C1577.87 321.142 1569.89 328.143 1560.85 336.369C1559.64 337.469 1556.56 340.105 1554.01 342.226C1551.46 344.348 1547.88 347.429 1546.06 349.073C1544.24 350.717 1535.16 358.617 1525.88 366.627C1516.6 374.638 1507.97 382.152 1506.71 383.325C1505.44 384.498 1502.52 387.013 1500.21 388.914C1493.36 394.557 1485.82 401.137 1484.75 402.411C1484.2 403.065 1477 409.384 1468.75 416.452C1443.22 438.326 1430.96 448.931 1425.63 453.742C1422.81 456.287 1418.63 459.944 1416.33 461.869C1409.53 467.576 1406.92 469.828 1403.75 472.727C1402.1 474.237 1394.45 480.92 1386.75 487.578C1379.05 494.236 1370.95 501.321 1368.75 503.323C1363.68 507.944 1352.24 515.08 1345.75 517.676C1325.6 525.74 1302.5 524.258 1282.75 513.633C1280.55 512.449 1278.25 511.005 1277.64 510.425C1277.02 509.844 1272.6 506.894 1267.81 503.869C1263.02 500.844 1256.9 496.682 1254.21 494.619C1251.52 492.557 1249.09 490.869 1248.82 490.869C1248.55 490.869 1244.6 488.314 1240.04 485.192C1235.48 482.07 1227.7 476.789 1222.75 473.458C1217.8 470.126 1213.53 467.167 1213.25 466.882C1212.51 466.106 1200.91 458.433 1199.76 457.954C1199.21 457.726 1196.74 456.13 1194.26 454.408C1191.78 452.686 1186.83 449.273 1183.26 446.823C1179.69 444.373 1176.31 442.025 1175.76 441.605C1174.76 440.842 1170.76 438.169 1162.25 432.561C1155.55 428.141 1146.83 422.267 1136.75 415.37C1131.8 411.983 1124.83 407.269 1121.25 404.895C1113.43 399.698 1115.09 400.814 1052.43 358.535C1044.55 353.219 1037.9 348.869 1037.65 348.869C1037.4 348.869 1034.98 347.181 1032.27 345.119C1023.15 338.173 1018.34 334.869 1017.37 334.869C1016.83 334.869 1015.8 334.295 1015.07 333.593C1014.35 332.891 1008.58 328.862 1002.25 324.641C995.929 320.419 988.252 315.256 985.194 313.167C982.136 311.078 978.905 308.919 978.014 308.369C977.123 307.819 971.075 303.738 964.574 299.3C950.879 289.952 937.313 280.808 935.002 279.369C931.5 277.188 912.723 264.382 912.254 263.855C911.979 263.546 907.704 260.67 902.754 257.464C897.804 254.258 892.436 250.714 890.825 249.589C889.214 248.465 883.139 244.331 877.325 240.404C871.511 236.476 864.396 231.599 861.514 229.566C858.632 227.533 855.89 225.869 855.419 225.869C854.949 225.869 853.749 224.969 852.754 223.869C851.759 222.769 850.546 221.869 850.059 221.869C849.236 221.869 843.379 218.071 842.254 216.808C841.979 216.499 837.479 213.385 832.254 209.887C827.029 206.39 820.707 202.143 818.204 200.449C815.702 198.755 812.942 196.919 812.071 196.369C811.199 195.819 807.93 193.569 804.806 191.369C801.682 189.169 798.364 186.919 797.433 186.369C794.574 184.681 777.785 173.479 777.254 172.905C776.979 172.609 773.829 170.395 770.254 167.987C766.679 165.578 761.279 161.921 758.254 159.861C755.229 157.801 748.254 153.158 742.754 149.544C737.254 145.93 729.829 140.896 726.254 138.357C722.679 135.818 718.629 133.025 717.254 132.15C710.478 127.836 691.693 115.339 691.254 114.852C690.979 114.547 681.979 108.427 671.254 101.252C660.529 94.0769 643.204 82.4349 632.754 75.3809C622.304 68.3269 613.026 62.3649 612.136 62.1309C611.096 61.8569 609.719 62.9979 608.278 65.3309ZM538.754 316.005C533.254 316.479 526.025 317.542 522.69 318.368C519.355 319.193 514.589 319.869 512.099 319.869C509.609 319.869 505.433 320.513 502.819 321.3C500.204 322.086 495.07 323.042 491.41 323.423C487.749 323.804 483.972 324.523 483.016 325.021C482.061 325.519 478.011 326.563 474.016 327.342C461.17 329.847 452.778 331.956 451.804 332.925C451.281 333.444 449.706 333.889 448.304 333.913C446.901 333.937 443.954 334.648 441.754 335.492C439.554 336.337 435.504 337.482 432.754 338.037C430.004 338.592 427.286 339.433 426.715 339.905C426.143 340.378 423.893 341.202 421.715 341.737C419.536 342.272 414.604 343.899 410.754 345.351C406.904 346.804 402.404 348.361 400.754 348.811C399.104 349.26 396.404 350.355 394.754 351.242C393.104 352.13 391.053 352.859 390.195 352.863C389.338 352.866 387.763 353.53 386.695 354.337C385.628 355.145 384.128 355.82 383.364 355.837C382.599 355.855 379.899 356.818 377.364 357.977C374.828 359.136 371.404 360.682 369.754 361.412C352.485 369.054 332.848 378.628 324.754 383.351C321.454 385.277 317.179 387.582 315.254 388.473C313.329 389.364 311.529 390.39 311.254 390.752C310.979 391.114 309.629 391.968 308.254 392.65C306.879 393.332 304.404 394.78 302.754 395.868C301.104 396.955 298.292 398.609 296.504 399.542C294.716 400.476 293.254 401.606 293.254 402.054C293.254 402.502 292.666 402.869 291.948 402.869C291.23 402.869 289.247 403.881 287.542 405.119C283.578 407.995 282.156 408.959 274.254 414.13C270.679 416.469 264.604 420.727 260.754 423.592C256.904 426.457 251.758 430.279 249.318 432.085C246.879 433.891 243.954 436.153 242.818 437.11C241.683 438.068 238.966 440.236 236.781 441.928C232.222 445.459 223.739 452.764 218.27 457.869C216.208 459.794 211.677 463.844 208.2 466.869C200.703 473.393 191.558 482.573 181.254 493.917C177.129 498.459 172.629 503.405 171.254 504.908C169.879 506.411 167.589 508.929 166.166 510.505C163.016 513.99 141.348 541.644 139.254 544.85C138.429 546.114 136.742 548.387 135.504 549.902C134.266 551.418 133.254 552.948 133.254 553.304C133.254 554.027 129.431 559.584 127.504 561.663C126.817 562.405 126.254 563.398 126.254 563.869C126.254 564.34 125.691 565.333 125.004 566.075C122.606 568.661 119.53 573.424 118.827 575.638C118.438 576.865 117.744 577.869 117.284 577.869C116.825 577.869 115.954 579.106 115.349 580.619C114.743 582.132 113.354 584.719 112.262 586.369C111.169 588.019 109.726 590.494 109.054 591.869C108.383 593.244 107.028 595.442 106.044 596.754C105.059 598.066 104.254 599.978 104.254 601.004C104.254 602.03 103.859 602.869 103.375 602.869C102.892 602.869 101.905 604.331 101.182 606.119C100.459 607.907 99.5858 609.594 99.2418 609.869C98.8978 610.144 97.5788 612.619 96.3098 615.369C95.0418 618.119 92.2198 624.194 90.0388 628.869C87.8568 633.544 85.3998 638.944 84.5778 640.869C83.7558 642.794 82.2218 646.033 81.1688 648.067C80.1158 650.101 79.2538 652.507 79.2538 653.413C79.2538 654.319 78.5848 656.255 77.7678 657.715C76.1568 660.59 73.5808 667.56 72.3418 672.393C71.9158 674.055 70.9678 676.53 70.2348 677.893C69.5028 679.255 68.5628 681.944 68.1458 683.869C67.4298 687.171 65.4688 693.628 63.1338 700.369C61.9258 703.854 59.5898 713.193 58.1298 720.369C57.5708 723.119 56.6458 726.719 56.0738 728.369C55.5028 730.019 54.4628 734.969 53.7628 739.369C53.0628 743.769 51.9868 748.941 51.3718 750.862C50.7568 752.784 50.2538 756.627 50.2538 759.402C50.2538 762.178 49.5728 767.062 48.7418 770.255C43.6978 789.62 43.7118 877.608 48.7628 898.369C49.5658 901.669 50.2298 906.716 50.2378 909.584C50.2468 912.452 50.8948 916.727 51.6778 919.084C52.4618 921.441 53.4178 926.069 53.8038 929.369C54.1888 932.669 54.9388 936.203 55.4688 937.221C55.9998 938.24 56.8518 942.03 57.3638 945.643C57.8758 949.257 58.6928 952.698 59.1808 953.291C59.6678 953.884 60.3828 956.619 60.7688 959.369C61.1548 962.119 62.0268 965.269 62.7058 966.369C63.3848 967.469 64.2488 970.329 64.6258 972.724C65.0028 975.119 65.9728 978.359 66.7828 979.924C67.5918 981.489 68.2538 983.817 68.2538 985.097C68.2538 986.377 68.9138 988.366 69.7198 989.517C70.5258 990.668 71.6198 993.355 72.1508 995.489C73.5148 1000.97 76.0228 1007.91 77.7678 1011.02C78.5848 1012.48 79.2538 1014.23 79.2538 1014.91C79.2538 1016.03 81.4858 1021.3 84.7418 1027.87C85.4238 1029.24 86.2768 1031.61 86.6368 1033.12C86.9968 1034.63 87.7338 1035.87 88.2728 1035.87C88.8128 1035.87 89.2538 1036.39 89.2538 1037.02C89.2538 1039.31 97.9028 1057.11 102.299 1063.87C103.193 1065.24 104.233 1067.61 104.609 1069.12C104.984 1070.63 105.699 1071.87 106.195 1071.87C106.692 1071.87 107.619 1073.44 108.254 1075.37C108.889 1077.29 109.78 1078.87 110.234 1078.87C110.687 1078.87 111.566 1080.11 112.187 1081.62C112.808 1083.13 113.87 1085.27 114.547 1086.37C118.722 1093.15 135.544 1118.59 138.679 1122.87C140.091 1124.79 142.035 1127.47 143 1128.81C148.038 1135.84 160.973 1152.07 166.481 1158.28C177.118 1170.26 196.621 1191.22 199.254 1193.5C204.95 1198.43 206.949 1200.22 212.782 1205.66C222.883 1215.08 233.401 1224.3 235.246 1225.37C236.893 1226.32 241.531 1229.98 246.64 1234.37C247.921 1235.47 249.976 1237.04 251.208 1237.87C252.439 1238.69 255.98 1241.32 259.076 1243.7C264.917 1248.19 284.936 1261.87 290.789 1265.37C292.631 1266.47 296.689 1268.94 299.806 1270.87C308.811 1276.43 312.541 1278.62 315.754 1280.25C317.404 1281.09 321.454 1283.36 324.754 1285.3C328.054 1287.24 331.879 1289.33 333.254 1289.95C334.629 1290.57 336.429 1291.49 337.254 1291.98C338.079 1292.47 339.879 1293.32 341.254 1293.87C342.629 1294.42 344.429 1295.32 345.254 1295.87C346.079 1296.43 347.429 1297.14 348.254 1297.45C349.079 1297.76 350.429 1298.43 351.254 1298.95C352.079 1299.46 353.429 1300.16 354.254 1300.5C355.079 1300.84 358.089 1302.19 360.942 1303.5C363.796 1304.8 366.721 1305.88 367.442 1305.9C368.164 1305.92 369.628 1306.59 370.695 1307.4C371.763 1308.21 373.395 1308.87 374.323 1308.87C375.25 1308.87 376.569 1309.54 377.254 1310.37C377.939 1311.19 379.238 1311.87 380.141 1311.87C381.045 1311.87 383.463 1312.77 385.515 1313.87C387.568 1314.97 389.925 1315.87 390.754 1315.87C391.583 1315.87 393.94 1316.77 395.993 1317.87C398.045 1318.97 400.631 1319.88 401.739 1319.9C402.847 1319.92 404.628 1320.59 405.695 1321.4C406.763 1322.21 408.563 1322.87 409.695 1322.87C410.828 1322.88 413.075 1323.57 414.689 1324.41C416.302 1325.25 419.227 1326.35 421.189 1326.85C424.777 1327.76 432.191 1330.06 437.754 1331.99C439.404 1332.56 443.229 1333.63 446.254 1334.37C455.978 1336.75 460.653 1337.98 465.254 1339.36C467.729 1340.11 472.004 1341.04 474.754 1341.42C477.504 1341.81 480.622 1342.58 481.683 1343.13C482.744 1343.68 487.212 1344.53 491.612 1345.03C496.012 1345.52 500.094 1346.32 500.683 1346.81C501.272 1347.3 505.129 1347.99 509.254 1348.36C513.379 1348.72 519.904 1349.65 523.754 1350.44C527.604 1351.22 536.154 1352.32 542.754 1352.87C549.354 1353.42 558.129 1354.29 562.254 1354.81C572.112 1356.04 645.483 1356.03 655.754 1354.8C660.154 1354.27 670.504 1353.21 678.754 1352.45C687.004 1351.69 695.326 1350.57 697.247 1349.97C699.169 1349.36 702.769 1348.86 705.247 1348.84C707.726 1348.83 711.554 1348.34 713.754 1347.75C715.954 1347.16 720.454 1346.24 723.754 1345.7C727.054 1345.17 732.004 1344.13 734.754 1343.39C737.504 1342.65 741.909 1341.76 744.542 1341.39C747.176 1341.03 750.874 1340.09 752.76 1339.3C754.646 1338.51 757.442 1337.87 758.972 1337.86C760.502 1337.86 762.955 1337.23 764.422 1336.46C765.89 1335.7 769.04 1334.75 771.422 1334.35C773.805 1333.95 777.329 1333.07 779.254 1332.4C781.179 1331.72 786.129 1330.15 790.254 1328.9C794.379 1327.65 799.104 1326.03 800.754 1325.29C802.404 1324.55 805.446 1323.66 807.515 1323.3C809.584 1322.94 811.515 1322.26 811.807 1321.78C812.099 1321.31 814.232 1320.44 816.546 1319.85C820.521 1318.83 824.068 1317.42 830.585 1314.25C832.142 1313.49 833.913 1312.87 834.519 1312.87C835.126 1312.87 837.677 1311.94 840.188 1310.81C846.199 1308.09 849.704 1306.53 855.754 1303.85C863.3 1300.51 892.201 1286.07 896.754 1283.35C898.954 1282.04 901.745 1280.52 902.955 1279.96C904.166 1279.41 907.091 1277.72 909.455 1276.2C915.515 1272.31 919.322 1270.16 922.504 1268.83C924.017 1268.19 925.254 1267.34 925.254 1266.93C925.254 1266.52 926.267 1265.66 927.504 1265.01C932.692 1262.29 946.613 1253.25 952.754 1248.62C963.402 1240.59 975.077 1231.64 976.201 1230.65C976.996 1229.94 981.182 1226.59 985.503 1223.2C1003.3 1209.23 1034.87 1178.37 1049.78 1160.37C1052.52 1157.07 1055.27 1153.92 1055.89 1153.37C1057.9 1151.6 1078.72 1124.47 1081.23 1120.35C1082.56 1118.16 1083.98 1116.13 1084.39 1115.85C1085.28 1115.22 1090.25 1107.98 1090.25 1107.31C1090.25 1107.06 1091.83 1104.61 1093.75 1101.87C1095.68 1099.13 1097.25 1096.65 1097.25 1096.37C1097.25 1096.08 1098.77 1093.69 1100.62 1091.05C1102.48 1088.41 1104.31 1085.27 1104.69 1084.06C1105.07 1082.86 1105.76 1081.87 1106.22 1081.87C1106.68 1081.87 1107.55 1080.63 1108.16 1079.12C1108.77 1077.61 1110.44 1074.34 1111.87 1071.87C1117.18 1062.72 1122.09 1052.42 1121.56 1051.56C1120.74 1050.24 1111.18 1053.06 1108.12 1055.53C1107.37 1056.14 1105.29 1056.95 1103.5 1057.33C1101.72 1057.71 1100.25 1058.44 1100.25 1058.95C1100.25 1059.45 1099.72 1059.87 1099.07 1059.87C1098.42 1059.87 1095.83 1060.83 1093.32 1062C1082.52 1067.06 1074.42 1070.78 1069.75 1072.84C1067 1074.05 1062.28 1076.18 1059.25 1077.56C1056.23 1078.95 1052.85 1080.44 1051.75 1080.89C1050.65 1081.33 1045.7 1083.57 1040.75 1085.87C1027.15 1092.19 1025.95 1092.73 1023.25 1093.84C1021.88 1094.4 1020.08 1095.26 1019.25 1095.75C1016.37 1097.44 1008.53 1100.87 1007.52 1100.87C1006.96 1100.87 1005.94 1101.54 1005.25 1102.37C1004.57 1103.19 1003.28 1103.88 1002.38 1103.9C1001.49 1103.92 998.504 1105.04 995.754 1106.39C993.004 1107.74 990.192 1108.85 989.504 1108.86C988.817 1108.86 988.254 1109.32 988.254 1109.87C988.254 1110.42 987.735 1110.87 987.1 1110.87C986.466 1110.87 983.429 1112.02 980.35 1113.43C977.272 1114.84 973.179 1116.71 971.254 1117.58C969.329 1118.45 967.079 1119.55 966.254 1120.02C965.429 1120.49 964.079 1121.16 963.254 1121.5C959.56 1123.01 952.156 1126.32 945.254 1129.54C941.129 1131.47 935.954 1133.84 933.754 1134.82C924.722 1138.83 910.956 1145.08 902.796 1148.87C899.244 1150.52 895.924 1151.87 895.418 1151.87C894.913 1151.87 893.939 1152.54 893.254 1153.37C892.569 1154.19 891.141 1154.87 890.08 1154.87C888.43 1154.87 884.416 1156.62 878.254 1160.04C877.429 1160.5 875.629 1161.31 874.254 1161.85C872.879 1162.39 870.48 1163.51 868.923 1164.35C867.366 1165.18 865.508 1165.87 864.795 1165.87C864.082 1165.87 862.949 1166.53 862.276 1167.34C861.603 1168.15 859.539 1169.1 857.689 1169.45C855.839 1169.79 853.804 1170.71 853.167 1171.47C852.53 1172.24 851.551 1172.87 850.991 1172.87C850.431 1172.87 847.899 1173.83 845.364 1175C831.413 1181.45 825.347 1184.23 821.754 1185.82C819.554 1186.8 816.179 1188.3 814.254 1189.17C812.329 1190.03 808.054 1191.94 804.754 1193.42C796.889 1196.93 784.407 1202.72 781.254 1204.33C779.879 1205.03 777.517 1205.89 776.004 1206.25C774.491 1206.61 773.254 1207.35 773.254 1207.89C773.254 1208.43 772.735 1208.87 772.1 1208.87C770.907 1208.87 761.758 1212.86 757.1 1215.41C755.64 1216.21 753.782 1216.87 752.972 1216.87C752.162 1216.87 750.949 1217.53 750.276 1218.34C749.603 1219.15 747.539 1220.1 745.689 1220.45C743.839 1220.79 741.804 1221.71 741.167 1222.47C740.53 1223.24 739.366 1223.87 738.58 1223.87C737.793 1223.87 735.486 1224.71 733.452 1225.75C731.418 1226.78 728.179 1228.31 726.254 1229.15C724.329 1229.99 718.704 1232.56 713.754 1234.86C700.394 1241.08 698.984 1241.72 696.254 1242.84C694.879 1243.4 693.079 1244.25 692.254 1244.72C690.38 1245.79 686.805 1247.41 668.754 1255.36C667.104 1256.09 661.704 1258.57 656.754 1260.87C646.183 1265.79 642.306 1267.54 640.254 1268.3C639.429 1268.6 638.079 1269.24 637.254 1269.71C635.851 1270.5 631.243 1272.62 621.754 1276.82C619.554 1277.8 615.989 1279.45 613.831 1280.48C610.418 1282.12 607.475 1282.37 591.186 1282.37C574.758 1282.37 572.226 1282.15 570.53 1280.62C569.467 1279.66 567.68 1278.87 566.56 1278.87C565.44 1278.87 563.38 1277.97 561.981 1276.87C560.583 1275.77 559.109 1274.87 558.707 1274.87C557.667 1274.87 544.255 1263.93 544.249 1263.08C544.247 1262.69 543.009 1261 541.499 1259.32C536.445 1253.71 531.763 1244.57 530.203 1237.27C529.627 1234.57 528.744 1230.57 528.241 1228.37C527.657 1225.82 527.88 1210.26 528.857 1185.37C529.699 1163.92 530.81 1130.62 531.325 1111.37C532.251 1076.75 533.297 1044.76 535.279 990.369C535.841 974.969 536.679 947.969 537.143 930.369C537.607 912.769 538.729 876.769 539.636 850.369C540.543 823.969 541.724 788.869 542.26 772.369C543.486 734.599 544.948 692.424 546.28 656.369C546.849 640.969 547.723 612.051 548.223 592.107C548.723 572.162 549.612 545.837 550.198 533.607C550.784 521.376 551.734 488.727 552.309 461.053C552.883 433.379 553.76 409.669 554.256 408.364C554.752 407.059 555.414 389.651 555.726 369.68C556.038 349.709 556.517 329.921 556.79 325.707C557.187 319.569 556.97 317.728 555.699 316.457C553.979 314.737 553.601 314.726 538.754 316.005ZM579.546 323.977C575.579 325.124 575.548 325.293 574.749 350.055C574.171 368.002 574.225 368.783 576.135 369.805C577.228 370.39 579.846 370.869 581.953 370.869C589.019 370.869 597.112 376.73 601.454 384.992C603.735 389.333 603.756 389.721 604.036 431.857C604.332 476.496 603.964 481.537 600.007 487.121C594.43 494.989 588.943 498.016 578.904 498.763L570.754 499.369L570.014 515.869C569.607 524.944 568.906 542.269 568.456 554.369C567.519 579.574 567.306 578.869 575.856 578.869C588.318 578.869 600.864 588.143 603.255 599.122C604.042 602.737 604.297 617.585 604.076 646.869C603.774 686.719 603.632 689.616 601.792 693.326C596.885 703.221 586.603 708.858 573.415 708.884C569.201 708.893 565.087 709.321 564.272 709.837C563.034 710.62 562.705 715.908 562.271 742.071C561.933 762.413 562.102 773.626 562.753 774.104C563.303 774.508 568.555 774.845 574.423 774.854C594.576 774.883 603.954 779.08 610.637 791.061L613.254 795.754V840.281C613.254 883.905 613.21 884.894 611.096 889.088C608.106 895.019 603.617 899.567 597.922 902.435C593.388 904.719 592.074 904.869 576.672 904.869C562.077 904.869 560.05 905.073 558.418 906.705C556.798 908.325 556.504 911.05 555.918 929.866C555.089 956.497 555.061 983.203 555.861 985.287C556.381 986.642 558.863 986.869 573.179 986.869C592.374 986.869 597.682 987.97 603.798 993.221C605.974 995.089 608.991 998.921 610.504 1001.74L613.254 1006.85V1050.73C613.254 1093.45 613.197 1094.74 611.105 1099.47C608.519 1105.32 603.262 1110.85 597.544 1113.74C593.668 1115.7 591.748 1115.87 573.365 1115.87C557.124 1115.87 553.122 1116.14 551.926 1117.34C550.243 1119.02 549.666 1127.14 548.37 1167.37C547.829 1184.18 547.88 1193.81 548.516 1194.62C549.245 1195.55 554.793 1195.87 570.017 1195.87C593.097 1195.87 595.591 1196.47 602.597 1203.77C609.862 1211.33 610.252 1212.96 610.269 1235.85C610.278 1247.14 610.658 1256.96 611.114 1257.68C612.506 1259.87 615.206 1258.92 638.765 1247.9C643.171 1245.84 647.29 1243.52 647.918 1242.76C648.606 1241.92 649.198 1236 649.407 1227.87C649.719 1215.72 649.996 1213.97 652.163 1210.37C655.798 1204.33 659.255 1200.94 664.471 1198.28L669.188 1195.87H711.319H753.451L762.102 1191.79C766.861 1189.55 772.104 1187.12 773.754 1186.39C775.404 1185.67 779.229 1183.94 782.254 1182.55C785.279 1181.16 790.454 1178.82 793.754 1177.35C797.054 1175.87 802.004 1173.62 804.754 1172.35C807.504 1171.07 812.341 1168.87 815.504 1167.45C822.994 1164.09 829.733 1161 840.563 1155.96C845.408 1153.71 849.966 1151.87 850.691 1151.87C851.416 1151.87 852.569 1151.19 853.254 1150.37C853.939 1149.54 854.913 1148.87 855.418 1148.87C855.924 1148.87 859.356 1147.47 863.046 1145.76C866.735 1144.04 872.229 1141.53 875.254 1140.16C878.279 1138.8 884.457 1135.92 888.983 1133.77C893.51 1131.63 897.437 1129.87 897.712 1129.87C898.459 1129.87 913.526 1122.95 915.254 1121.81C916.079 1121.27 918.329 1120.1 920.254 1119.21C923.404 1117.76 923.554 1117.52 921.754 1116.8C920.654 1116.37 906.672 1115.98 890.684 1115.94L861.614 1115.87L857.626 1112.45C851.413 1107.14 851.253 1105.59 851.26 1050.54C851.265 1000.28 851.548 996.465 855.6 991.99C860.275 986.828 859.72 986.869 924.972 986.875C961.92 986.878 987.149 987.268 989.311 987.868C993.876 989.136 997.776 993.296 999.155 998.369C999.85 1000.93 1000.24 1016.31 1000.25 1041C1000.25 1084.14 1000.16 1083.55 1006.5 1080.57C1010.96 1078.48 1024.83 1072.11 1030 1069.78C1041.63 1064.55 1043.96 1063.39 1046.5 1061.64L1049.25 1059.73V1028.5V997.263L1052.22 993.236C1054.22 990.508 1056.44 988.831 1059.08 988.039C1061.75 987.239 1074.49 986.869 1099.4 986.869C1130.73 986.869 1136.12 986.652 1138.03 985.312C1139.25 984.456 1140.25 982.896 1140.25 981.846C1140.25 980.796 1140.89 978.459 1141.68 976.653C1144.39 970.398 1152.52 940.795 1154.4 930.369C1154.89 927.619 1156 922.394 1156.85 918.758C1157.7 915.122 1158.26 910.622 1158.08 908.758L1157.75 905.369L1108.25 904.869C1053.21 904.313 1055.75 904.647 1051.27 897.397C1049.31 894.229 1049.25 892.544 1049.25 840.305V786.477L1051.84 782.748C1056.93 775.4 1056.7 775.431 1111.75 774.869L1160.75 774.369L1160.72 769.869C1160.67 764.325 1158.54 747.952 1157.07 741.869C1156.47 739.394 1155.64 735.023 1155.21 732.156C1154.27 725.808 1151.28 712.928 1150.27 710.869C1149.64 709.576 1142.7 709.3 1099.99 708.869L1050.44 708.369L1046.6 705.263C1039.16 699.252 1039.16 699.285 1039.48 642.5C1039.74 594.663 1039.85 592.187 1041.75 588.389C1042.85 586.2 1045.55 583.177 1047.75 581.672L1051.75 578.935L1073.8 578.902C1089.31 578.879 1096.2 578.521 1097.03 577.695C1098.17 576.556 1095.45 570.669 1090.19 562.869C1089.26 561.494 1084.51 554.316 1079.63 546.918C1068.79 530.498 1058.41 516.572 1050.15 507.382C1048.16 505.175 1046.03 502.397 1045.41 501.209C1044.65 499.76 1042.91 498.817 1040.1 498.344C1037.31 497.871 1034.63 496.427 1031.99 493.966C1028.77 490.96 1027.96 489.436 1027.52 485.559C1027.01 481.002 1026.47 480.328 1013.37 467.712C996.338 451.311 993.417 448.999 992.189 450.939C991.692 451.726 991.273 457.994 991.26 464.869C991.238 475.841 990.949 477.98 988.899 482.369C985.556 489.528 981.795 493.555 975.801 496.39L970.561 498.869H916.767C863.291 498.869 862.947 498.856 858.554 496.662C852.636 493.707 847.528 488.584 844.908 482.977C842.806 478.481 842.754 477.311 842.754 434.869C842.754 394.165 842.876 391.112 844.658 387.369C847.671 381.04 851.148 377.046 857.059 373.123C862.378 369.592 862.474 369.449 860.151 368.497C858.833 367.957 855.866 366.695 853.559 365.692C851.252 364.689 849.01 363.869 848.578 363.869C847.891 363.869 840.697 361.221 834.754 358.78C833.654 358.328 829.154 356.808 824.754 355.402C820.354 353.995 815.404 352.364 813.754 351.776C812.104 351.188 808.504 350.089 805.754 349.333C803.004 348.577 797.379 347 793.254 345.828C789.129 344.656 783.054 343.084 779.754 342.334C776.454 341.583 771.954 340.505 769.754 339.936C761.21 337.729 740.032 333.649 727.754 331.845C723.904 331.28 717.829 330.322 714.254 329.718C710.679 329.113 705.504 328.434 702.754 328.208C700.004 327.982 691.679 327.141 684.254 326.338C654.769 323.15 587.642 321.636 579.546 323.977ZM652.739 372.974C647.423 375.783 644.765 378.342 641.488 383.808L638.754 388.369V434.869V481.369L641.169 485.369C644.377 490.685 648.147 494.155 653.56 496.775C657.988 498.918 658.42 498.932 713.387 498.652L768.754 498.369L772.856 495.7C778.578 491.977 783.193 485.777 784.836 479.607C786.608 472.95 786.88 398.887 785.162 390.875C783.822 384.627 779.278 378.439 772.858 374.119L768.028 370.869H712.376C657.725 370.869 656.653 370.907 652.739 372.974ZM656.032 580.697C650.793 582.552 645.416 587.157 641.399 593.227L638.754 597.223V643.796V690.369L641.188 694.369C644.544 699.883 648.819 703.64 654.978 706.488L660.202 708.904L712.478 708.596C771.711 708.247 769.564 708.519 777.877 700.311C786.303 691.992 786.396 691.324 786.004 642.073C785.758 611.186 785.334 599.349 784.366 596.438C782.534 590.924 773.919 582.82 767.55 580.619C762.973 579.037 757.593 578.876 711.62 578.947C666.753 579.015 660.197 579.221 656.032 580.697ZM851.254 580.946C849.329 582.063 846.629 584.64 845.254 586.673L842.754 590.369L842.478 643.187L842.203 696.005L844.468 700.035C845.743 702.305 848.523 705.114 850.831 706.467L854.93 708.869H916.691C985.431 708.869 982.662 709.133 988.06 702.057L990.754 698.526L991.03 645.079L991.305 591.632L988.736 587.249C987.142 584.529 984.682 582.108 982.251 580.867C978.458 578.933 976.367 578.87 916.544 578.892C856.279 578.914 854.668 578.965 851.254 580.946ZM672.754 775.397C672.204 775.601 669.207 776.485 666.094 777.363C657.897 779.674 652.124 785.099 648.783 793.63L646.143 800.369L646.449 842.369C646.723 880.154 646.929 884.67 648.498 887.369C649.457 889.019 650.244 890.862 650.248 891.466C650.259 893.468 657.308 899.862 662.283 902.384L667.188 904.869L720.971 904.872L774.754 904.875L779.219 902.622C785.072 899.669 789.974 894.555 792.883 888.369L795.234 883.369V840.369V797.369L792.862 792.369C791.556 789.619 788.478 785.429 786.021 783.058C782.376 779.541 780.191 778.393 774.154 776.825C767.35 775.058 763.008 774.908 720.254 774.965C694.679 774.999 673.304 775.193 672.754 775.397ZM863.254 776.513C857.224 778.589 853.926 781.906 852.466 787.368C850.863 793.361 850.751 885.423 852.337 892.821C853.217 896.921 854.223 898.529 857.69 901.37L861.96 904.869H925.927H989.894L993.948 901.399C996.859 898.907 998.319 896.669 999.128 893.456C1000.71 887.181 1000.69 792.065 999.111 786.785C997.637 781.866 993.992 778.544 987.826 776.502C983.49 775.065 975.984 774.875 925.326 774.917C876.036 774.958 867.107 775.187 863.254 776.513ZM665.037 988.235C659.319 990.013 652.78 996.093 649.585 1002.6L646.754 1008.37V1051.87C646.754 1091.42 646.912 1095.64 648.498 1098.37C649.457 1100.02 650.244 1101.84 650.248 1102.41C650.259 1104.34 658.719 1111.75 663.254 1113.79C667.595 1115.75 669.648 1115.83 721.269 1115.85C773.708 1115.87 774.864 1115.83 778.769 1113.77C784.657 1110.67 790.182 1105.02 792.864 1099.37L795.234 1094.37L795.244 1051.56C795.254 1010 795.192 1008.62 793.122 1004.06C789.31 995.667 783.594 990.444 775.638 988.088C769.987 986.415 670.465 986.547 665.037 988.235ZM1007.54 1326.88C1001.37 1327.25 995.75 1328.02 995.042 1328.58C994.333 1329.15 991.975 1329.93 989.801 1330.32C987.626 1330.71 984.157 1331.9 982.09 1332.95C980.024 1334.01 977.696 1334.87 976.916 1334.87C976.137 1334.87 974.975 1335.5 974.335 1336.27C973.696 1337.04 972.117 1337.94 970.828 1338.26C968.024 1338.96 960.272 1344.09 951.718 1350.9C941.359 1359.14 925.934 1376.37 920.081 1386.23C919.711 1386.86 918.063 1389.67 916.419 1392.49L913.429 1397.61L918.342 1403.69C921.043 1407.02 923.254 1410.08 923.254 1410.48C923.254 1410.88 923.928 1411.91 924.752 1412.78C930.403 1418.76 933.127 1422 935.754 1425.86C937.404 1428.28 940.654 1432.34 942.976 1434.88C945.298 1437.41 948.474 1441.38 950.032 1443.7C951.591 1446.03 954.218 1449.37 955.87 1451.15C957.522 1452.92 960.777 1456.84 963.104 1459.87C968.268 1466.58 973.233 1472.66 975.288 1474.78C976.132 1475.66 978.154 1478.35 979.781 1480.77C981.408 1483.2 984.052 1486.57 985.656 1488.27C987.26 1489.98 991.942 1495.64 996.062 1500.87C1000.18 1506.09 1004.07 1510.82 1004.71 1511.37C1005.35 1511.92 1007.84 1515.07 1010.25 1518.37C1012.67 1521.67 1015.15 1524.82 1015.76 1525.37C1017.59 1527 1025.25 1536.59 1025.25 1537.26C1025.25 1537.59 1026.04 1538.69 1027 1539.69C1031.47 1544.34 1038.77 1553.28 1042.42 1558.56C1044.63 1561.75 1047.24 1565.04 1048.21 1565.87C1049.18 1566.69 1051.85 1569.84 1054.15 1572.87C1059.31 1579.65 1064.24 1585.69 1066.34 1587.78C1067.21 1588.66 1069.33 1591.45 1071.05 1594C1072.77 1596.54 1076.01 1600.58 1078.24 1602.98C1080.48 1605.37 1083.53 1609.14 1085.03 1611.35C1087.51 1615 1091.56 1619.89 1095.15 1623.58C1097.21 1625.7 1101.25 1631.82 1101.25 1632.83C1101.25 1633.31 1101.64 1633.85 1102.11 1634.04C1103.41 1634.54 1113.18 1645.88 1115.75 1649.87C1116.99 1651.79 1119.09 1654.53 1120.42 1655.94C1124.28 1660.07 1130.25 1667.52 1130.25 1668.22C1130.25 1668.58 1131.04 1669.69 1132 1670.69C1135.15 1673.97 1143.22 1683.53 1145.51 1686.69C1148.25 1690.47 1162.91 1708.65 1168.32 1714.99C1170.49 1717.53 1173.44 1721.35 1174.88 1723.49C1176.31 1725.62 1178.22 1728.09 1179.12 1728.97C1182.64 1732.42 1186.97 1737.57 1189.95 1741.87C1191.66 1744.34 1194.71 1748.17 1196.73 1750.37C1198.75 1752.57 1202.12 1756.84 1204.21 1759.87C1206.31 1762.89 1209.77 1767.19 1211.89 1769.42C1215.97 1773.69 1221.25 1780.38 1221.25 1781.25C1221.25 1781.54 1223.39 1784.09 1226 1786.91C1228.62 1789.73 1232.01 1793.92 1233.55 1796.21C1235.09 1798.5 1237.57 1801.72 1239.07 1803.37C1244.39 1809.23 1250.25 1816.66 1250.25 1817.54C1250.25 1818.02 1251.04 1819.12 1252 1819.98C1254.77 1822.43 1259.53 1828.04 1262.25 1832.04C1263.63 1834.06 1267 1838.27 1269.75 1841.4C1272.5 1844.52 1276.02 1848.94 1277.56 1851.22C1279.11 1853.5 1283.07 1858.38 1286.37 1862.07C1289.67 1865.75 1293.51 1870.48 1294.91 1872.57C1297.57 1876.56 1312.57 1891.87 1313.82 1891.87C1314.22 1891.87 1316.84 1893.33 1319.65 1895.12C1325.52 1898.87 1331.41 1901.76 1339.27 1904.76C1347.18 1907.78 1368.42 1907.85 1374.25 1904.87C1376.41 1903.77 1379.04 1902.87 1380.09 1902.87C1381.15 1902.87 1382.57 1902.19 1383.25 1901.37C1383.94 1900.54 1385.27 1899.87 1386.22 1899.87C1388.21 1899.87 1390.69 1897.94 1400.85 1888.45C1404.92 1884.64 1408.25 1880.92 1408.25 1880.17C1408.25 1879.42 1408.89 1878.56 1409.67 1878.26C1411.17 1877.69 1419.25 1862.09 1419.26 1859.75C1419.26 1858.99 1420.03 1857.02 1420.97 1855.37C1423.52 1850.86 1423.55 1821.5 1421 1817.9C1420.04 1816.54 1419.25 1814.47 1419.25 1813.3C1419.25 1812.13 1418.35 1810.36 1417.25 1809.37C1416.15 1808.37 1415.25 1806.54 1415.25 1805.3C1415.25 1804.05 1414.85 1802.89 1414.36 1802.7C1413.38 1802.33 1404.25 1791.31 1404.25 1790.48C1404.25 1790.2 1402.12 1787.65 1399.5 1784.83C1396.89 1782 1393.5 1777.82 1391.96 1775.53C1390.42 1773.24 1387.92 1770.02 1386.41 1768.37C1384.89 1766.72 1380.07 1760.89 1375.7 1755.42C1371.33 1749.95 1366.69 1744.32 1365.38 1742.92C1364.07 1741.52 1361.99 1738.79 1360.75 1736.87C1359.52 1734.94 1357.43 1732.2 1356.13 1730.78C1349.87 1723.94 1347.44 1721.02 1344.58 1716.87C1342.87 1714.39 1340.41 1711.22 1339.12 1709.82C1334.69 1705.05 1328.25 1697.09 1328.25 1696.39C1328.25 1696.01 1326.79 1694.1 1325 1692.14C1323.22 1690.18 1321.08 1687.84 1320.25 1686.94C1319.43 1686.04 1316.78 1682.62 1314.37 1679.34C1311.95 1676.05 1309.48 1672.92 1308.86 1672.37C1306.56 1670.31 1299.25 1661.06 1299.25 1660.2C1299.25 1659.71 1297.78 1657.75 1295.97 1655.84C1291.51 1651.11 1284.25 1642.23 1284.25 1641.49C1284.25 1641.16 1282.99 1639.64 1281.45 1638.13C1279.9 1636.61 1276.52 1632.67 1273.94 1629.37C1271.35 1626.07 1268 1621.8 1266.49 1619.88C1264.99 1617.96 1262.14 1614.59 1260.17 1612.38C1258.2 1610.17 1255.19 1606.34 1253.49 1603.87C1251.78 1601.39 1248.52 1597.34 1246.24 1594.87C1243.96 1592.39 1240.89 1588.59 1239.42 1586.42C1237.95 1584.24 1235.25 1580.87 1233.41 1578.92C1231.58 1576.97 1227.58 1571.99 1224.52 1567.87C1221.47 1563.74 1218.47 1559.92 1217.86 1559.37C1215.55 1557.3 1208.25 1548.05 1208.25 1547.2C1208.25 1546.71 1207.47 1545.62 1206.5 1544.77C1204.75 1543.23 1201.14 1538.97 1195.02 1531.23C1184.75 1518.22 1171.49 1501.98 1169.08 1499.44C1167.54 1497.84 1165.06 1494.69 1163.57 1492.44C1162.08 1490.2 1160.38 1487.92 1159.81 1487.37C1158.27 1485.91 1150.17 1476 1146.77 1471.4C1145.15 1469.22 1143.13 1466.74 1142.29 1465.88C1138.88 1462.4 1132.25 1454.03 1132.25 1453.2C1132.25 1452.71 1130.78 1450.75 1128.97 1448.84C1123.55 1443.1 1117.25 1435.16 1117.25 1434.06C1117.25 1433.5 1116.88 1432.89 1116.42 1432.7C1115.38 1432.29 1107.29 1423 1105.25 1419.89C1103.47 1417.16 1099.67 1412.45 1096.4 1408.91C1095.1 1407.51 1091.15 1402.66 1087.61 1398.13C1084.07 1393.61 1079.82 1388.43 1078.18 1386.63C1076.54 1384.84 1073.97 1381.59 1072.47 1379.42C1070.98 1377.24 1068.04 1373.64 1065.95 1371.42C1063.85 1369.19 1060.42 1364.89 1058.31 1361.87C1056.21 1358.84 1053.42 1355.22 1052.12 1353.82C1047.73 1349.1 1041.25 1341.1 1041.25 1340.39C1041.25 1340.01 1039.95 1338.27 1038.35 1336.53C1036.75 1334.79 1034.16 1331.96 1032.6 1330.25C1029.15 1326.47 1024.51 1325.85 1007.54 1326.88Z" fill="black"/>
<path fill-rule="evenodd" clip-rule="evenodd" d="M579.545 323.977C575.578 325.124 575.547 325.293 574.748 350.055C574.17 368.002 574.224 368.783 576.134 369.805C577.227 370.39 579.845 370.869 581.952 370.869C589.018 370.869 597.111 376.73 601.453 384.992C603.734 389.333 603.755 389.721 604.035 431.857C604.331 476.496 603.963 481.537 600.006 487.121C594.429 494.989 588.943 498.016 578.904 498.763L570.753 499.369L570.013 515.869C569.606 524.944 568.906 542.269 568.456 554.369C567.519 579.574 567.305 578.869 575.855 578.869C588.317 578.869 600.863 588.143 603.254 599.122C604.041 602.737 604.297 617.585 604.076 646.869C603.774 686.719 603.632 689.616 601.792 693.326C596.885 703.221 586.602 708.858 573.414 708.884C569.2 708.893 565.086 709.321 564.271 709.837C563.033 710.62 562.705 715.908 562.271 742.071C561.933 762.413 562.102 773.626 562.753 774.104C563.303 774.508 568.554 774.845 574.422 774.854C594.575 774.883 603.953 779.08 610.636 791.061L613.253 795.754V840.281C613.253 883.905 613.209 884.894 611.095 889.088C608.105 895.019 603.617 899.567 597.922 902.435C593.388 904.719 592.074 904.869 576.672 904.869C562.077 904.869 560.049 905.073 558.417 906.705C556.797 908.325 556.503 911.05 555.917 929.866C555.088 956.497 555.06 983.203 555.86 985.287C556.38 986.642 558.862 986.869 573.178 986.869C592.373 986.869 597.681 987.97 603.797 993.221C605.973 995.089 608.99 998.921 610.503 1001.74L613.253 1006.85V1050.73C613.253 1093.45 613.196 1094.74 611.104 1099.47C608.518 1105.32 603.261 1110.85 597.543 1113.74C593.667 1115.7 591.748 1115.87 573.365 1115.87C557.124 1115.87 553.121 1116.14 551.925 1117.34C550.242 1119.02 549.666 1127.14 548.37 1167.37C547.829 1184.18 547.88 1193.81 548.516 1194.62C549.245 1195.55 554.792 1195.87 570.016 1195.87C593.096 1195.87 595.591 1196.47 602.597 1203.77C609.862 1211.33 610.252 1212.96 610.269 1235.85C610.278 1247.14 610.657 1256.96 611.113 1257.68C612.505 1259.87 615.205 1258.92 638.764 1247.9C643.17 1245.84 647.289 1243.52 647.917 1242.76C648.605 1241.92 649.198 1236 649.407 1227.87C649.719 1215.72 649.995 1213.97 652.162 1210.37C655.797 1204.33 659.254 1200.94 664.47 1198.28L669.188 1195.87H711.318H753.451L762.102 1191.79C766.861 1189.55 772.103 1187.12 773.753 1186.39C775.403 1185.67 779.228 1183.94 782.253 1182.55C785.278 1181.16 790.453 1178.82 793.753 1177.35C797.053 1175.87 802.003 1173.62 804.753 1172.35C807.503 1171.07 812.34 1168.87 815.503 1167.45C822.993 1164.09 829.733 1161 840.562 1155.96C845.407 1153.71 849.965 1151.87 850.69 1151.87C851.415 1151.87 852.568 1151.19 853.253 1150.37C853.938 1149.54 854.912 1148.87 855.417 1148.87C855.923 1148.87 859.355 1147.47 863.045 1145.76C866.734 1144.04 872.228 1141.53 875.253 1140.16C878.278 1138.8 884.456 1135.92 888.982 1133.77C893.509 1131.63 897.436 1129.87 897.711 1129.87C898.458 1129.87 913.525 1122.95 915.253 1121.81C916.078 1121.27 918.328 1120.1 920.253 1119.21C923.403 1117.76 923.553 1117.52 921.753 1116.8C920.653 1116.37 906.671 1115.98 890.683 1115.94L861.613 1115.87L857.625 1112.45C851.412 1107.14 851.252 1105.59 851.259 1050.54C851.264 1000.28 851.547 996.465 855.599 991.99C860.274 986.828 859.719 986.869 924.971 986.875C961.919 986.878 987.148 987.268 989.31 987.868C993.875 989.136 997.775 993.296 999.154 998.369C999.849 1000.93 1000.24 1016.31 1000.25 1041C1000.25 1084.14 1000.16 1083.55 1006.5 1080.57C1010.96 1078.48 1024.83 1072.11 1030 1069.78C1041.63 1064.55 1043.96 1063.39 1046.5 1061.64L1049.25 1059.73V1028.5V997.263L1052.22 993.236C1054.22 990.508 1056.44 988.831 1059.08 988.039C1061.75 987.239 1074.49 986.869 1099.4 986.869C1130.73 986.869 1136.12 986.652 1138.03 985.312C1139.25 984.456 1140.25 982.896 1140.25 981.846C1140.25 980.796 1140.89 978.459 1141.68 976.653C1144.39 970.398 1152.52 940.795 1154.4 930.369C1154.89 927.619 1156 922.394 1156.85 918.758C1157.7 915.122 1158.26 910.622 1158.08 908.758L1157.75 905.369L1108.25 904.869C1053.21 904.313 1055.75 904.647 1051.27 897.397C1049.31 894.229 1049.25 892.544 1049.25 840.305V786.477L1051.84 782.748C1056.93 775.4 1056.7 775.431 1111.75 774.869L1160.75 774.369L1160.72 769.869C1160.67 764.325 1158.54 747.952 1157.07 741.869C1156.47 739.394 1155.64 735.023 1155.21 732.156C1154.27 725.808 1151.28 712.928 1150.27 710.869C1149.64 709.576 1142.7 709.3 1099.99 708.869L1050.44 708.369L1046.6 705.263C1039.16 699.252 1039.16 699.285 1039.48 642.5C1039.74 594.663 1039.85 592.187 1041.75 588.389C1042.85 586.2 1045.55 583.177 1047.75 581.672L1051.75 578.935L1073.8 578.902C1089.31 578.879 1096.2 578.521 1097.03 577.695C1098.17 576.556 1095.45 570.669 1090.19 562.869C1089.26 561.494 1084.51 554.316 1079.63 546.918C1068.79 530.498 1058.41 516.572 1050.15 507.382C1048.16 505.175 1046.03 502.397 1045.41 501.209C1044.65 499.76 1042.91 498.817 1040.1 498.344C1037.31 497.871 1034.63 496.427 1031.99 493.966C1028.77 490.96 1027.96 489.436 1027.52 485.559C1027.01 481.002 1026.47 480.328 1013.37 467.712C996.337 451.311 993.417 448.999 992.189 450.939C991.692 451.726 991.272 457.994 991.259 464.869C991.237 475.841 990.948 477.98 988.898 482.369C985.555 489.528 981.794 493.555 975.8 496.39L970.56 498.869H916.766C863.29 498.869 862.946 498.856 858.553 496.662C852.635 493.707 847.527 488.584 844.907 482.977C842.805 478.481 842.753 477.311 842.753 434.869C842.753 394.165 842.875 391.112 844.657 387.369C847.67 381.04 851.147 377.046 857.058 373.123C862.377 369.592 862.473 369.449 860.15 368.497C858.832 367.957 855.865 366.695 853.558 365.692C851.251 364.689 849.009 363.869 848.577 363.869C847.89 363.869 840.696 361.221 834.753 358.78C833.653 358.328 829.153 356.808 824.753 355.402C820.353 353.995 815.403 352.364 813.753 351.776C812.103 351.188 808.503 350.089 805.753 349.333C803.003 348.577 797.378 347 793.253 345.828C789.128 344.656 783.053 343.084 779.753 342.334C776.453 341.583 771.953 340.505 769.753 339.936C761.209 337.729 740.031 333.649 727.753 331.845C723.903 331.28 717.828 330.322 714.253 329.718C710.678 329.113 705.503 328.434 702.753 328.208C700.003 327.982 691.678 327.141 684.253 326.338C654.768 323.15 587.641 321.636 579.545 323.977ZM652.738 372.974C647.422 375.783 644.764 378.342 641.487 383.808L638.753 388.369V434.869V481.369L641.168 485.369C644.376 490.685 648.147 494.155 653.56 496.775C657.988 498.918 658.419 498.932 713.386 498.652L768.753 498.369L772.855 495.7C778.577 491.977 783.192 485.777 784.835 479.607C786.607 472.95 786.879 398.887 785.161 390.875C783.821 384.627 779.277 378.439 772.857 374.119L768.027 370.869H712.375C657.724 370.869 656.652 370.907 652.738 372.974ZM656.032 580.697C650.793 582.552 645.416 587.157 641.399 593.227L638.753 597.223V643.796V690.369L641.188 694.369C644.544 699.883 648.818 703.64 654.977 706.488L660.201 708.904L712.477 708.596C771.71 708.247 769.563 708.519 777.876 700.311C786.302 691.992 786.395 691.324 786.003 642.073C785.757 611.186 785.333 599.349 784.365 596.438C782.533 590.924 773.918 582.82 767.549 580.619C762.972 579.037 757.593 578.876 711.62 578.947C666.753 579.015 660.197 579.221 656.032 580.697ZM851.253 580.946C849.328 582.063 846.628 584.64 845.253 586.673L842.753 590.369L842.477 643.187L842.202 696.005L844.467 700.035C845.742 702.305 848.523 705.114 850.831 706.467L854.93 708.869H916.69C985.43 708.869 982.662 709.133 988.06 702.057L990.753 698.526L991.029 645.079L991.305 591.632L988.736 587.249C987.142 584.529 984.681 582.108 982.25 580.867C978.457 578.933 976.366 578.87 916.543 578.892C856.278 578.914 854.667 578.965 851.253 580.946ZM672.753 775.397C672.203 775.601 669.207 776.485 666.094 777.363C657.897 779.674 652.123 785.099 648.782 793.63L646.142 800.369L646.448 842.369C646.722 880.154 646.929 884.67 648.498 887.369C649.457 889.019 650.244 890.862 650.248 891.466C650.259 893.468 657.307 899.862 662.282 902.384L667.188 904.869L720.97 904.872L774.753 904.875L779.219 902.622C785.072 899.669 789.974 894.555 792.883 888.369L795.233 883.369V840.369V797.369L792.861 792.369C791.555 789.619 788.478 785.429 786.021 783.058C782.376 779.541 780.191 778.393 774.154 776.825C767.35 775.058 763.007 774.908 720.253 774.965C694.678 774.999 673.303 775.193 672.753 775.397ZM863.253 776.513C857.223 778.589 853.925 781.906 852.465 787.368C850.862 793.361 850.75 885.423 852.336 892.821C853.216 896.921 854.222 898.529 857.689 901.37L861.959 904.869H925.926H989.893L993.947 901.399C996.858 898.907 998.319 896.669 999.128 893.456C1000.71 887.181 1000.69 792.065 999.111 786.785C997.637 781.866 993.992 778.544 987.826 776.502C983.49 775.065 975.984 774.875 925.326 774.917C876.035 774.958 867.106 775.187 863.253 776.513ZM665.037 988.235C659.319 990.013 652.779 996.093 649.584 1002.6L646.753 1008.37V1051.87C646.753 1091.42 646.912 1095.64 648.498 1098.37C649.457 1100.02 650.244 1101.84 650.248 1102.41C650.259 1104.34 658.718 1111.75 663.253 1113.79C667.594 1115.75 669.647 1115.83 721.268 1115.85C773.707 1115.87 774.863 1115.83 778.768 1113.77C784.656 1110.67 790.181 1105.02 792.863 1099.37L795.233 1094.37L795.243 1051.56C795.253 1010 795.191 1008.62 793.121 1004.06C789.309 995.667 783.593 990.444 775.637 988.088C769.986 986.415 670.465 986.547 665.037 988.235Z" fill="#1BA91C"/>
<path fill-rule="evenodd" clip-rule="evenodd" d="M674.811 41.7781C674.345 42.5311 681.612 47.6851 699.253 59.1111C700.628 60.0011 704.228 62.5471 707.253 64.7671C710.278 66.9881 714.778 70.0351 717.253 71.5391C719.728 73.0431 721.978 74.5421 722.253 74.8711C722.528 75.2001 727.028 78.2291 732.253 81.6021C737.478 84.9751 743.778 89.2571 746.253 91.1171C748.728 92.9781 752.553 95.5721 754.753 96.8821C756.953 98.1921 758.978 99.5231 759.253 99.8401C759.528 100.157 764.478 103.545 770.253 107.369C776.028 111.193 780.978 114.558 781.253 114.847C782.071 115.706 794.279 123.869 794.746 123.869C794.982 123.869 798.681 126.266 802.964 129.196C807.248 132.125 813.678 136.512 817.253 138.944C820.828 141.376 823.978 143.593 824.253 143.87C824.988 144.612 836.597 152.303 837.667 152.757C838.17 152.97 842.107 155.558 846.417 158.507C865.206 171.364 870.057 174.703 874.993 178.179C877.875 180.209 880.448 181.869 880.711 181.869C881.205 181.869 893.361 189.961 894.253 190.883C894.528 191.167 898.841 194.137 903.837 197.481C908.832 200.826 914.232 204.481 915.837 205.604C917.441 206.726 921.453 209.363 924.753 211.462C928.053 213.562 932.6 216.762 934.857 218.574C937.114 220.386 939.224 221.869 939.547 221.869C940.12 221.869 958.261 233.827 959.253 234.858C959.674 235.296 977.163 247.198 982.045 250.369C987.992 254.232 1005.85 266.28 1011.05 269.939C1014.52 272.375 1018.89 275.269 1020.78 276.369C1022.66 277.469 1029.5 281.998 1035.98 286.435C1042.45 290.871 1050.68 296.496 1054.25 298.935C1057.83 301.373 1060.9 303.706 1061.09 304.119C1061.27 304.532 1061.85 304.869 1062.37 304.869C1062.89 304.869 1068.37 308.322 1074.54 312.543C1080.71 316.764 1096.55 327.482 1109.75 336.36C1122.95 345.238 1137.51 355.06 1142.11 358.186C1146.71 361.311 1150.69 363.869 1150.97 363.869C1151.24 363.869 1153.3 365.331 1155.54 367.119C1157.79 368.907 1161.77 371.719 1164.4 373.369C1167.03 375.019 1173.27 379.182 1178.28 382.619C1183.28 386.057 1187.74 388.869 1188.19 388.869C1188.64 388.869 1189.56 389.528 1190.22 390.333C1191.32 391.654 1201.21 398.635 1203.73 399.869C1205.08 400.527 1216.61 408.214 1217.25 408.882C1217.53 409.167 1221.8 412.124 1226.75 415.455C1231.7 418.785 1238.45 423.333 1241.75 425.562C1245.05 427.791 1250.45 431.344 1253.75 433.457C1257.05 435.571 1259.98 437.54 1260.25 437.834C1260.53 438.128 1265.48 441.515 1271.25 445.361C1277.03 449.206 1282.26 452.806 1282.88 453.361C1283.5 453.915 1286.17 455.719 1288.81 457.369C1295.15 461.328 1295.53 461.575 1304.25 467.332C1311.45 472.081 1312.04 472.283 1318.9 472.325C1324.34 472.359 1326.5 471.953 1327.98 470.619C1329.04 469.657 1330.22 468.869 1330.59 468.869C1331.28 468.869 1355.64 448.159 1361.21 442.836C1362.1 441.993 1365.5 439.064 1368.79 436.327C1375.56 430.681 1380.81 426.102 1383.15 423.795C1384.03 422.929 1388.35 419.167 1392.75 415.435C1397.15 411.703 1401.88 407.649 1403.25 406.426C1407.51 402.644 1423.62 388.628 1429.76 383.369C1438.07 376.243 1443.34 371.628 1445.37 369.681C1446.34 368.753 1449.74 365.874 1452.94 363.283C1456.14 360.693 1458.98 358.259 1459.25 357.875C1459.53 357.491 1464.03 353.478 1469.25 348.957C1474.48 344.436 1480.39 339.304 1482.4 337.553C1484.41 335.802 1486.66 333.902 1487.4 333.332C1488.14 332.762 1492.81 328.712 1497.77 324.332C1502.73 319.952 1509.7 313.927 1513.27 310.942C1516.84 307.957 1520.43 304.766 1521.25 303.85C1522.08 302.934 1526.17 299.301 1530.34 295.777C1544.91 283.471 1547.78 280.992 1551.75 277.318C1553.95 275.283 1558.23 271.537 1561.25 268.994C1564.28 266.45 1572.19 259.644 1578.83 253.869C1585.47 248.094 1593.55 241.119 1596.78 238.369C1600.01 235.619 1605.15 231.056 1608.2 228.229C1611.26 225.401 1615.78 221.426 1618.25 219.394C1626.49 212.633 1644.01 197.327 1649.95 191.695L1654.15 187.718L1652.45 184.044C1648.54 175.589 1638.26 169.099 1627.45 168.271C1623.77 167.988 1616.7 167.12 1611.75 166.342C1606.8 165.564 1598.25 164.468 1592.75 163.907C1582.37 162.847 1572.43 161.667 1558.75 159.869C1554.35 159.29 1546.7 158.404 1541.75 157.898C1536.8 157.393 1527.58 156.281 1521.25 155.427C1514.93 154.573 1505.93 153.454 1501.25 152.939C1491.41 151.856 1479.34 150.396 1467.25 148.828C1462.58 148.221 1454.93 147.33 1450.25 146.849C1445.58 146.367 1436.58 145.289 1430.25 144.454C1423.93 143.618 1414.93 142.483 1410.25 141.932C1387.17 139.21 1383.21 138.727 1376.25 137.787C1372.13 137.229 1364.7 136.36 1359.75 135.855C1354.8 135.349 1345.58 134.262 1339.25 133.438C1327.14 131.86 1316.63 130.585 1301.75 128.886C1296.8 128.321 1287.8 127.187 1281.75 126.366C1275.7 125.546 1266.93 124.448 1262.25 123.927C1248.27 122.37 1235.21 120.827 1227.25 119.792C1223.13 119.256 1215.7 118.392 1210.75 117.873C1205.8 117.353 1196.8 116.25 1190.75 115.42C1184.7 114.59 1175.93 113.479 1171.25 112.951C1151.42 110.709 1143.33 109.738 1136.25 108.755C1132.13 108.182 1124.48 107.309 1119.25 106.814C1114.03 106.32 1105.48 105.255 1100.25 104.448C1095.03 103.642 1086.73 102.701 1081.81 102.357C1076.89 102.014 1072.12 101.335 1071.22 100.849C1070.31 100.362 1065.33 99.6941 1060.16 99.3631C1054.99 99.0331 1046.7 98.1231 1041.75 97.3431C1036.8 96.5621 1029.38 95.4561 1025.25 94.8861C1012.26 93.0881 1003.95 91.8291 997.753 90.7191C994.453 90.1281 987.703 89.0881 982.753 88.4091C977.803 87.7301 971.053 86.6751 967.753 86.0661C964.453 85.4571 955.903 84.0571 948.753 82.9551C941.603 81.8531 932.603 80.4421 928.753 79.8201C924.903 79.1971 918.828 78.3081 915.253 77.8431C911.678 77.3781 904.478 76.2741 899.253 75.3881C867.622 70.0281 863.031 69.2951 843.253 66.4471C832.559 64.9071 824.73 63.6231 808.753 60.7881C802.703 59.7151 796.208 58.8441 794.319 58.8531C792.43 58.8621 788.38 58.2291 785.319 57.4471C782.258 56.6651 776.153 55.5391 771.753 54.9451C751.997 52.2751 748.31 51.7221 741.253 50.3681C737.128 49.5761 730.603 48.6251 726.753 48.2551C722.903 47.8851 718.733 47.2051 717.486 46.7441C716.24 46.2831 711.065 45.4081 705.986 44.8001C700.908 44.1921 694.053 43.0651 690.753 42.2961C683.908 40.7021 675.642 40.4331 674.811 41.7781ZM609.016 66.1191C608.085 67.9061 607.097 70.4941 606.821 71.8691C606.304 74.4481 605.278 101.551 602.754 179.369C601.952 204.119 601.001 230.943 600.641 238.978C600.109 250.855 600.246 253.751 601.37 254.467C603.347 255.727 613.975 256.762 635.53 257.797C645.858 258.292 657.333 259.175 661.03 259.758C664.728 260.342 672.928 261.299 679.253 261.885C685.578 262.472 692.328 263.357 694.253 263.852C696.178 264.348 701.128 265.037 705.253 265.384C709.378 265.732 715.003 266.631 717.753 267.382C720.503 268.134 725.229 268.993 728.253 269.291C731.277 269.59 736.677 270.496 740.253 271.306C743.829 272.115 751.253 273.711 756.753 274.852C762.253 275.993 768.553 277.391 770.753 277.959C772.953 278.527 776.784 279.37 779.267 279.833C781.749 280.295 786.024 281.35 788.767 282.177C791.509 283.004 797.353 284.641 801.753 285.815C811.51 288.418 818.983 290.574 826.253 292.882C829.278 293.843 835.128 295.623 839.253 296.837C843.378 298.052 847.653 299.463 848.753 299.972C849.853 300.482 852.103 301.32 853.753 301.834C855.403 302.348 859.903 303.949 863.753 305.391C867.603 306.833 872.193 308.445 873.952 308.974C875.712 309.503 878.412 310.592 879.952 311.396C881.493 312.199 883.45 312.859 884.303 312.863C885.156 312.866 886.281 313.273 886.803 313.767C887.325 314.261 890.903 315.887 894.753 317.381C898.603 318.875 903.553 320.909 905.753 321.903C907.953 322.897 912.003 324.691 914.753 325.89C921.85 328.986 934.479 334.932 936.253 336.013C937.078 336.516 938.526 337.188 939.471 337.506C940.416 337.825 943.116 339.179 945.471 340.515C947.826 341.851 951.553 343.846 953.753 344.948C955.953 346.051 960.903 348.747 964.753 350.939C968.603 353.132 972.878 355.466 974.253 356.127C975.628 356.788 976.978 357.605 977.253 357.944C977.528 358.283 978.935 359.192 980.378 359.965C987.797 363.935 991.079 365.987 1006.75 376.45C1036.63 396.395 1060.08 415.617 1085.3 440.827C1103.24 458.767 1107.38 463.244 1116.68 474.767C1120.4 479.386 1123.86 483.661 1124.36 484.267C1133.87 495.777 1148.55 517.379 1158.78 534.918C1166.36 547.9 1178.83 572.025 1182.6 580.977C1183.62 583.392 1185.05 586.719 1185.79 588.369C1186.53 590.019 1188.1 593.844 1189.29 596.869C1190.47 599.894 1192.3 604.218 1193.35 606.479C1194.4 608.739 1195.25 611.369 1195.25 612.324C1195.25 613.279 1195.89 615.255 1196.67 616.715C1198.21 619.594 1200.87 627.284 1202.25 632.869C1202.73 634.794 1203.85 638.619 1204.73 641.369C1205.62 644.119 1207.01 648.394 1207.81 650.869C1208.61 653.344 1209.26 656.081 1209.26 656.951C1209.26 657.82 1210.1 661.42 1211.13 664.951C1213.68 673.637 1214.65 678.333 1219.13 703.369C1221.75 718.019 1223.82 736.746 1226.32 768.348C1228.46 795.531 1225.95 871.732 1222.29 890.369C1221.75 893.119 1221.03 898.969 1220.7 903.369C1220.37 907.769 1219.49 914.744 1218.74 918.869C1217.98 922.994 1217.07 928.844 1216.71 931.869C1216.35 934.894 1215.43 940.069 1214.67 943.369C1213.91 946.669 1213.28 951.03 1213.27 953.06C1213.25 956.76 1214.57 958.79 1215.74 956.885C1216.09 956.326 1216.99 955.869 1217.75 955.869C1218.51 955.869 1222.96 954.069 1227.63 951.869C1232.31 949.669 1236.37 947.869 1236.67 947.869C1236.97 947.869 1240.57 946.294 1244.69 944.369C1248.8 942.444 1252.77 940.869 1253.51 940.869C1254.25 940.869 1255.28 940.445 1255.8 939.926C1256.33 939.408 1260.13 937.582 1264.25 935.87C1268.38 934.157 1273.1 932.134 1274.75 931.374C1276.4 930.615 1280 929.022 1282.75 927.835C1292.31 923.711 1293.8 923.046 1301.51 919.468C1305.77 917.488 1309.55 915.869 1309.9 915.869C1310.25 915.869 1312.38 915.005 1314.64 913.949C1316.9 912.893 1320.89 911.093 1323.5 909.949C1326.12 908.805 1330.17 907.029 1332.5 906.002C1334.84 904.974 1338.55 903.355 1340.75 902.403C1346.37 899.97 1351.68 897.586 1359.51 893.981C1363.22 892.269 1366.57 890.869 1366.94 890.869C1367.32 890.869 1369.45 890.014 1371.69 888.968C1373.92 887.922 1377.55 886.288 1379.75 885.335C1381.95 884.383 1385.67 882.764 1388 881.736C1390.34 880.709 1394.39 878.941 1397 877.806C1399.62 876.672 1403.55 874.921 1405.75 873.915C1407.95 872.909 1412 871.106 1414.75 869.909C1417.5 868.712 1420.95 867.088 1422.41 866.3C1423.87 865.513 1425.54 864.869 1426.12 864.869C1427.13 864.869 1438.15 860.036 1446.75 855.822C1448.95 854.745 1451.07 853.865 1451.47 853.866C1451.86 853.868 1455.46 852.353 1459.47 850.5C1463.47 848.647 1471.25 845.238 1476.75 842.924C1486.42 838.858 1489.2 837.648 1497.75 833.796C1499.95 832.805 1504 831.023 1506.75 829.835C1509.5 828.648 1513.33 826.984 1515.25 826.138C1517.18 825.292 1520.1 824.014 1521.75 823.299C1523.4 822.584 1527.45 820.805 1530.75 819.347C1534.05 817.888 1538.1 816.108 1539.75 815.39C1543.47 813.774 1551.59 810.206 1556.25 808.146C1558.18 807.294 1561.55 805.808 1563.75 804.842C1565.95 803.876 1570 802.098 1572.75 800.89C1578.02 798.578 1582.12 796.79 1587.5 794.465C1589.29 793.693 1592.78 792.163 1595.25 791.064C1597.73 789.966 1601.55 788.288 1603.75 787.335C1611.28 784.079 1616.25 781.869 1620.57 779.869C1622.94 778.769 1625.19 777.869 1625.55 777.869C1625.92 777.869 1630.42 775.851 1635.56 773.385C1645.38 768.669 1649.18 765.348 1653.28 757.869L1655.75 753.369V505.202C1655.75 368.711 1655.41 256.694 1654.99 256.275C1654.57 255.857 1653.67 256.199 1652.99 257.034C1651.87 258.416 1645.19 264.332 1628.73 278.521C1625.44 281.355 1621.59 284.73 1620.16 286.021C1614.29 291.342 1610.5 294.603 1605.25 298.869C1600.07 303.083 1597.8 305.062 1589.91 312.235C1587.11 314.78 1576.19 324.21 1570.75 328.781C1569.65 329.706 1564.68 334.041 1559.71 338.416C1554.74 342.79 1548.02 348.619 1544.79 351.369C1541.56 354.119 1537.91 357.269 1536.69 358.369C1530.25 364.177 1527.21 366.824 1521.75 371.371C1518.45 374.12 1515.53 376.637 1515.25 376.965C1514.72 377.596 1500.97 389.643 1490.25 398.869C1486.74 401.894 1479.98 407.744 1475.22 411.869C1470.47 415.994 1463.95 421.619 1460.73 424.369C1457.51 427.119 1452.54 431.521 1449.68 434.152C1446.83 436.783 1441.86 441.071 1438.63 443.681C1435.4 446.291 1431.4 449.704 1429.75 451.266C1428.1 452.827 1420.68 459.311 1413.25 465.674C1405.83 472.038 1399.03 477.947 1398.15 478.806C1395.78 481.124 1390.5 485.742 1383.8 491.371C1380.52 494.12 1377.1 497.044 1376.19 497.869C1366.54 506.638 1359.78 511.99 1356.25 513.667C1354.88 514.32 1353.08 515.242 1352.25 515.715C1338.61 523.544 1317.53 526.022 1300.98 521.743C1296.45 520.574 1291.87 518.999 1290.78 518.243C1289.7 517.487 1288.1 516.869 1287.24 516.869C1285.89 516.869 1267.68 505.581 1266.25 503.866C1265.98 503.535 1263.95 502.188 1261.75 500.873C1259.55 499.558 1254.5 496.094 1250.51 493.176C1246.53 490.257 1243.08 487.869 1242.85 487.869C1242.43 487.869 1230.37 479.819 1196.25 456.749C1170.85 439.576 1164.84 435.458 1164.25 434.85C1163.98 434.563 1162.63 433.774 1161.25 433.096C1159.88 432.418 1154.25 428.69 1148.75 424.812C1138.18 417.358 1125.93 409.059 1123.01 407.376C1122.04 406.822 1115.74 402.58 1109.01 397.949C1097.66 390.154 1087.15 383.064 1074.75 374.84C1069.73 371.508 1057.88 363.46 1035.92 348.455C1029.4 344.008 1023.35 339.919 1022.47 339.369C1021.58 338.819 1018.58 336.82 1015.8 334.928C1011.22 331.802 1007 328.976 1001.89 325.601C1000.86 324.923 998.991 323.582 997.731 322.619C996.47 321.657 995.158 320.869 994.816 320.869C994.474 320.869 991.992 319.181 989.299 317.119C986.606 315.057 980.483 310.894 975.693 307.869C970.904 304.844 966.483 301.919 965.869 301.369C965.255 300.819 960.928 297.807 956.253 294.676C951.578 291.545 946.178 287.887 944.253 286.547C942.328 285.208 934.903 280.254 927.753 275.539C916.732 268.272 906.911 261.599 900.204 256.821C898.766 255.797 892.34 251.55 887.803 248.626C886.73 247.935 883.58 245.822 880.803 243.931C878.025 242.04 873.053 238.665 869.754 236.431C866.454 234.197 863.304 232.022 862.754 231.598C862.203 231.173 856.803 227.537 850.753 223.517C844.703 219.497 832.856 211.519 824.426 205.789C815.996 200.058 808.037 194.694 806.738 193.869C805.439 193.044 796.362 186.941 786.566 180.308C776.769 173.674 759.078 161.729 747.253 153.763C735.428 145.797 723.482 137.725 720.704 135.824C717.927 133.924 714.969 131.919 714.131 131.369C703.116 124.139 702.426 123.675 693.253 117.289C689.678 114.8 682.253 109.808 676.753 106.194C671.253 102.58 664.278 97.9371 661.253 95.8771C658.228 93.8171 652.828 90.1601 649.253 87.7511C645.678 85.3431 642.528 83.1461 642.253 82.8691C640.953 81.5611 629.094 73.8691 628.378 73.8691C627.93 73.8691 626.748 72.9691 625.753 71.8691C624.758 70.7691 623.536 69.8691 623.038 69.8691C622.54 69.8691 620.071 68.2941 617.55 66.3691C615.029 64.4441 612.457 62.8691 611.837 62.8691C611.216 62.8691 609.947 64.3321 609.016 66.1191Z" fill="#F2BA38"/>
</svg>
